<svg xmlns="http://www.w3.org/2000/svg" version="1.1" width="3300" height="2000"><g id="Notes"><style>
    text {
      font-family: monospace;
      text-anchor: middle;
    }
    text.emphasis {
      font-weight:bold;
    }
    text.lanchor {
      text-anchor: start;
    }
  </style><rect height="2200" id="artboard" fill="white" width="3300" x="0" y="0"/><line id="" style="fill:none;stroke:black;stroke-width:0.5;" x1="263" x2="3036" y1="292" y2="292"/><text class="lanchor emphasis" transform="matrix(1 0 0 1 263 322)">Weight/Scale Variations</text><text transform="matrix(1 0 0 1 559.711 322)">Ultralight</text><text transform="matrix(1 0 0 1 856.422 322)">Thin</text><text transform="matrix(1 0 0 1 1153.13 322)">Light</text><text transform="matrix(1 0 0 1 1449.84 322)">Regular</text><text transform="matrix(1 0 0 1 1746.56 322)">Medium</text><text transform="matrix(1 0 0 1 2043.27 322)">Semibold</text><text transform="matrix(1 0 0 1 2339.98 322)">Bold</text><text transform="matrix(1 0 0 1 2636.69 322)">Heavy</text><text transform="matrix(1 0 0 1 2933.4 322)">Black</text><text id="template-version" style="text-anchor: end;" transform="matrix(1 0 0 1 3036 1933)">Template v.1.0</text><text class="lanchor" transform="matrix(1 0 0 1 263 726)">Small</text><text class="lanchor" transform="matrix(1 0 0 1 263 1156)">Medium</text><text class="lanchor" transform="matrix(1 0 0 1 263 1586)">Large</text></g><g id="Guides"><g id="H-reference" style="fill:#27AAE1;stroke:none;" transform="matrix(1 0 0 1 339 696)"><path d="M 54.9316 0 L 57.666 0 L 30.5664 -70.459 L 28.0762 -70.459 L 0.976562 0 L 3.66211 0 L 12.9395 -24.4629 L 45.7031 -24.4629 Z M 29.1992 -67.0898 L 29.4434 -67.0898 L 44.8242 -26.709 L 13.8184 -26.709 Z"/></g><line id="Baseline-S" style="fill:none;stroke:#27AAE1;opacity:1;stroke-width:0.577;" x1="263" x2="3036" y1="696" y2="696"/><line id="Capline-S" style="fill:none;stroke:#27AAE1;opacity:1;stroke-width:0.577;" x1="263" x2="3036" y1="625.541" y2="625.541"/><g id="H-reference" style="fill:#27AAE1;stroke:none;" transform="matrix(1 0 0 1 339 1126)"><path d="M 54.9316 0 L 57.666 0 L 30.5664 -70.459 L 28.0762 -70.459 L 0.976562 0 L 3.66211 0 L 12.9395 -24.4629 L 45.7031 -24.4629 Z M 29.1992 -67.0898 L 29.4434 -67.0898 L 44.8242 -26.709 L 13.8184 -26.709 Z"/></g><line id="Baseline-M" style="fill:none;stroke:#27AAE1;opacity:1;stroke-width:0.577;" x1="263" x2="3036" y1="1126" y2="1126"/><line id="Capline-M" style="fill:none;stroke:#27AAE1;opacity:1;stroke-width:0.577;" x1="263" x2="3036" y1="1055.54" y2="1055.54"/><g id="H-reference" style="fill:#27AAE1;stroke:none;" transform="matrix(1 0 0 1 339 1556)"><path d="M 54.9316 0 L 57.666 0 L 30.5664 -70.459 L 28.0762 -70.459 L 0.976562 0 L 3.66211 0 L 12.9395 -24.4629 L 45.7031 -24.4629 Z M 29.1992 -67.0898 L 29.4434 -67.0898 L 44.8242 -26.709 L 13.8184 -26.709 Z"/></g><line id="Baseline-L" style="fill:none;stroke:#27AAE1;opacity:1;stroke-width:0.577;" x1="263" x2="3036" y1="1556" y2="1556"/><line id="Capline-L" style="fill:none;stroke:#27AAE1;opacity:1;stroke-width:0.577;" x1="263" x2="3036" y1="1485.54" y2="1485.54"/><rect height="119.336" id="left-margin" style="fill:darkred;stroke:none;opacity:0.4;" width="12.4512" x="1394.06" y="1030.79"/><rect height="119.336" id="right-margin" style="fill:darkgreen;stroke:none;opacity:0.4;" width="12.4512" x="1502.5112" y="1030.79"/><rect x="1406.5112" y="1045" width="96" height="96" fill="none" stroke="blue" stroke-dasharray="5"/><rect x="1394.06" y="1030.79" width="120.9024" height="119.336" fill="none" stroke="blue"/></g><g id="Symbols"><g id="Bold-L" transform="matrix(1 0 0 1 2266 1556)"><path d="M77.539 33.301 Q63.327 33.301 50.852 27.899 Q38.377 22.498 29.016 13.191 Q19.656 3.885 14.262 -8.574 Q8.869 -21.032 8.869 -35.226 Q8.869 -49.42 14.262 -61.881 Q19.656 -74.341 29.016 -83.65 Q38.377 -92.957 50.867 -98.44 Q63.356 -103.922 77.585 -103.922 Q91.813 -103.922 104.222 -98.44 Q116.631 -92.957 125.96 -83.686 Q135.289 -74.414 140.691 -61.939 Q146.093 -49.465 146.093 -35.252 Q146.093 -21.04 140.706 -8.561 Q135.32 3.918 125.971 13.239 Q116.622 22.561 104.187 27.931 Q91.751 33.301 77.539 33.301 Z M58.534 15.08  67.403 -6.527 Q61.114 -8.624 56.097 -13.461 Q51.081 -18.299 48.697 -25.071 L26.929 -16.686 Q31.928 -5.56 39.99 2.664 Q48.053 10.888 58.534 15.08 Z M48.536 -45.389 Q50.794 -52.322 55.793 -57.079 Q60.791 -61.836 67.241 -64.094 L58.534 -85.701 Q46.601 -80.702 38.539 -72.398 Q30.476 -64.094 26.929 -53.612 L48.536 -45.389 Z M77.372 -20.072 Q83.793 -20.072 88.256 -24.426 Q92.719 -28.78 92.719 -35.202 Q92.719 -41.623 88.256 -46.086 Q83.793 -50.549 77.372 -50.549 Q70.95 -50.549 66.596 -46.086 Q62.242 -41.623 62.242 -35.202 Q62.242 -28.78 66.596 -24.426 Q70.95 -20.072 77.372 -20.072 Z M96.266 15.08 Q107.231 10.726 115.374 2.503 Q123.517 -5.721 127.871 -16.525 L106.103 -25.071 Q103.684 -17.976 98.766 -13.3 Q93.847 -8.624 87.398 -6.527 L96.266 15.08 Z M106.103 -45.389  127.871 -54.096 Q123.496 -64.956 115.23 -73.06 Q106.965 -81.165 96.266 -85.701 L87.72 -64.094 Q94.219 -62.039 98.894 -57.206 Q103.569 -52.372 106.103 -45.389 Z"/></g><g id="Semibold-L" transform="matrix(1 0 0 1 1970.27 1556)"><path d="M77.479 31.549 Q63.627 31.549 51.458 26.287 Q39.289 21.025 30.212 11.979 Q21.135 2.933 15.878 -9.227 Q10.621 -21.386 10.621 -35.228 Q10.621 -49.069 15.878 -61.23 Q21.135 -73.391 30.212 -82.438 Q39.289 -91.485 51.466 -96.793 Q63.643 -102.1 77.504 -102.1 Q91.366 -102.1 103.497 -96.793 Q115.629 -91.485 124.688 -82.459 Q133.746 -73.432 139.008 -61.263 Q144.27 -49.095 144.27 -35.243 Q144.27 -21.391 139.017 -9.219 Q133.764 2.952 124.694 12.006 Q115.624 21.061 103.477 26.305 Q91.331 31.549 77.479 31.549 Z M58.253 15.641  67.683 -7.088 Q61.464 -9.185 56.561 -13.917 Q51.657 -18.649 49.258 -25.352 L26.438 -16.406 Q31.437 -5.139 39.569 3.154 Q47.702 11.448 58.253 15.641 Z M49.097 -45.038 Q51.495 -51.832 56.353 -56.554 Q61.212 -61.275 67.522 -63.463 L58.393 -86.192 Q46.391 -81.193 38.188 -72.819 Q29.986 -64.444 26.438 -53.893 L49.097 -45.038 Z M77.384 -18.25 Q84.519 -18.25 89.495 -23.164 Q94.471 -28.079 94.471 -35.214 Q94.471 -42.349 89.495 -47.325 Q84.519 -52.301 77.384 -52.301 Q70.249 -52.301 65.334 -47.325 Q60.42 -42.349 60.42 -35.214 Q60.42 -28.079 65.334 -23.164 Q70.249 -18.25 77.384 -18.25 Z M96.547 15.641 Q107.582 11.217 115.76 2.958 Q123.938 -5.301 128.362 -16.174 L105.542 -25.352 Q103.123 -18.397 98.275 -13.756 Q93.427 -9.114 87.117 -7.088 L96.547 15.641 Z M105.542 -45.108  128.362 -54.377 Q123.926 -65.282 115.644 -73.474 Q107.361 -81.665 96.547 -86.192 L87.44 -63.463 Q93.777 -61.39 98.382 -56.66 Q102.988 -51.93 105.542 -45.108 Z"/></g><g id="Medium-L" transform="matrix(1 0 0 1 1674.31 1556)"><path d="M77.433 30.234 Q63.851 30.234 51.912 25.078 Q39.972 19.921 31.109 11.07 Q22.245 2.22 17.09 -9.716 Q11.936 -21.652 11.936 -35.229 Q11.936 -48.807 17.09 -60.743 Q22.245 -72.679 31.109 -81.53 Q39.972 -90.381 51.915 -95.557 Q63.858 -100.733 77.444 -100.733 Q91.03 -100.733 102.954 -95.557 Q114.877 -90.381 123.733 -81.539 Q132.59 -72.696 137.746 -60.757 Q142.903 -48.817 142.903 -35.235 Q142.903 -21.653 137.75 -9.713 Q132.597 2.227 123.736 11.082 Q114.875 19.936 102.945 25.085 Q91.015 30.234 77.433 30.234 Z M58.043 16.062  67.893 -7.509 Q61.727 -9.605 56.908 -14.259 Q52.089 -18.912 49.679 -25.562 L26.07 -16.196 Q31.069 -4.824 39.254 3.523 Q47.439 11.869 58.043 16.062 Z M49.518 -44.775 Q52.021 -51.464 56.774 -56.159 Q61.527 -60.855 67.732 -62.99 L58.288 -86.56 Q46.233 -81.561 37.925 -73.134 Q29.617 -64.707 26.07 -54.103 L49.518 -44.775 Z M77.393 -16.883 Q85.063 -16.883 90.425 -22.218 Q95.786 -27.553 95.786 -35.223 Q95.786 -42.893 90.425 -48.255 Q85.063 -53.616 77.393 -53.616 Q69.723 -53.616 64.388 -48.255 Q59.053 -42.893 59.053 -35.223 Q59.053 -27.553 64.388 -22.218 Q69.723 -16.883 77.393 -16.883 Z M96.757 16.062 Q107.845 11.585 116.049 3.3 Q124.254 -4.985 128.73 -15.912 L105.121 -25.562 Q102.702 -18.712 97.907 -14.098 Q93.111 -9.483 86.907 -7.509 L96.757 16.062 Z M105.121 -44.898  128.73 -54.587 Q124.249 -65.527 115.953 -73.783 Q107.658 -82.04 96.757 -86.56 L87.229 -62.99 Q93.446 -60.903 97.999 -56.251 Q102.552 -51.598 105.121 -44.898 Z"/></g><g id="Regular-L" transform="matrix(1 0 0 1 1378.56 1556)"><path d="M77.4 29.27 Q64.016 29.27 52.245 24.191 Q40.474 19.111 31.766 10.404 Q23.059 1.696 17.979 -10.075 Q12.9 -21.846 12.9 -35.23 Q12.9 -48.614 17.979 -60.385 Q23.059 -72.156 31.766 -80.864 Q40.474 -89.571 52.245 -94.651 Q64.016 -99.73 77.4 -99.73 Q90.784 -99.73 102.555 -94.651 Q114.326 -89.571 123.034 -80.864 Q131.741 -72.156 136.821 -60.385 Q141.9 -48.614 141.9 -35.23 Q141.9 -21.846 136.821 -10.075 Q131.741 1.696 123.034 10.404 Q114.326 19.111 102.555 24.191 Q90.784 29.27 77.4 29.27 Z M57.889 16.37  68.047 -7.817 Q61.92 -9.914 57.163 -14.509 Q52.406 -19.105 49.988 -25.716 L25.8 -16.041 Q30.799 -4.592 39.023 3.793 Q47.246 12.178 57.889 16.37 Z M49.826 -44.582 Q52.406 -51.194 57.083 -55.87 Q61.759 -60.546 67.886 -62.642 L58.211 -86.83 Q46.117 -81.831 37.733 -73.366 Q29.348 -64.9 25.8 -54.257 L49.826 -44.582 Z M77.4 -15.88 Q85.463 -15.88 91.106 -21.524 Q96.75 -27.167 96.75 -35.23 Q96.75 -43.292 91.106 -48.936 Q85.463 -54.58 77.4 -54.58 Q69.338 -54.58 63.694 -48.936 Q58.05 -43.292 58.05 -35.23 Q58.05 -27.167 63.694 -21.524 Q69.338 -15.88 77.4 -15.88 Z M96.911 16.37 Q108.038 11.855 116.261 3.551 Q124.485 -4.754 129 -15.719 L104.812 -25.716 Q102.394 -18.944 97.637 -14.348 Q92.88 -9.752 86.752 -7.817 L96.911 16.37 Z M104.812 -44.744  129 -54.741 Q124.485 -65.706 116.181 -74.011 Q107.876 -82.315 96.911 -86.83 L87.075 -62.642 Q93.203 -60.546 97.718 -55.951 Q102.233 -51.355 104.812 -44.744 Z"/></g><g id="Light-L" transform="matrix(1 0 0 1 1082.77 1556)"><path d="M77.411 26.045 Q64.698 26.045 53.513 21.22 Q42.327 16.396 34.053 8.125 Q25.779 -0.146 20.952 -11.326 Q16.125 -22.507 16.125 -35.219 Q16.125 -47.932 20.95 -59.117 Q25.774 -70.303 34.045 -78.577 Q42.316 -86.851 53.496 -91.678 Q64.677 -96.505 77.389 -96.505 Q90.102 -96.505 101.287 -91.68 Q112.473 -86.856 120.747 -78.585 Q129.021 -70.314 133.848 -59.134 Q138.675 -47.953 138.675 -35.241 Q138.675 -22.528 133.85 -11.343 Q129.026 -0.157 120.755 8.117 Q112.484 16.391 101.304 21.218 Q90.123 26.045 77.411 26.045 Z M58.137 15.44  69.35 -10.857 Q63.77 -12.791 59.515 -16.909 Q55.259 -21.028 53.151 -26.957 L26.606 -16.289 Q31.357 -5.089 39.457 3.11 Q47.556 11.309 58.137 15.44 Z M53.051 -43.404 Q55.073 -49.333 59.315 -53.451 Q63.557 -57.569 69.127 -59.479 L58.459 -86.024 Q46.738 -81.273 38.539 -72.993 Q30.34 -64.714 26.606 -54.071 L53.051 -43.404 Z M77.385 -16.872 Q85.028 -16.872 90.393 -22.222 Q95.758 -27.573 95.758 -35.215 Q95.758 -42.858 90.408 -48.223 Q85.058 -53.588 77.415 -53.588 Q69.772 -53.588 64.407 -48.238 Q59.042 -42.888 59.042 -35.245 Q59.042 -27.602 64.392 -22.237 Q69.743 -16.872 77.385 -16.872 Z M96.725 15.44 Q107.541 11.049 115.61 2.93 Q123.679 -5.188 128.07 -15.967 L101.773 -27.081 Q99.727 -21.053 95.466 -16.922 Q91.205 -12.792 85.636 -10.981 L96.725 15.44 Z M101.649 -43.627  128.07 -54.555 Q123.679 -65.272 115.56 -73.39 Q107.442 -81.509 96.725 -85.9 L85.897 -59.479 Q91.28 -57.507 95.33 -53.47 Q99.379 -49.432 101.649 -43.627 Z"/></g><g id="Thin-L" transform="matrix(1 0 0 1 787.282 1556)"><path d="M77.422 22.82 Q65.381 22.82 54.78 18.25 Q44.18 13.681 36.339 5.847 Q28.498 -1.987 23.924 -12.577 Q19.35 -23.168 19.35 -35.208 Q19.35 -47.249 23.92 -57.85 Q28.489 -68.45 36.323 -76.291 Q44.157 -84.132 54.747 -88.706 Q65.338 -93.28 77.378 -93.28 Q89.419 -93.28 100.02 -88.71 Q110.62 -84.141 118.461 -76.307 Q126.302 -68.473 130.876 -57.883 Q135.45 -47.292 135.45 -35.252 Q135.45 -23.211 130.88 -12.61 Q126.311 -2.01 118.477 5.831 Q110.643 13.672 100.053 18.246 Q89.462 22.82 77.422 22.82 Z M58.385 14.509  70.652 -13.895 Q65.619 -15.667 61.866 -19.309 Q58.112 -22.95 56.313 -28.197 L27.413 -16.537 Q31.915 -5.585 39.891 2.428 Q47.866 10.441 58.385 14.509 Z M56.276 -42.226 Q57.74 -47.473 61.548 -51.032 Q65.356 -54.592 70.367 -56.317 L58.707 -85.217 Q47.358 -80.715 39.345 -72.621 Q31.332 -64.528 27.413 -53.885 L56.276 -42.226 Z M77.371 -17.865 Q84.594 -17.865 89.68 -22.921 Q94.765 -27.977 94.765 -35.201 Q94.765 -42.424 89.709 -47.51 Q84.653 -52.595 77.429 -52.595 Q70.206 -52.595 65.12 -47.539 Q60.035 -42.483 60.035 -35.259 Q60.035 -28.036 65.091 -22.95 Q70.147 -17.865 77.371 -17.865 Z M96.539 14.509 Q107.045 10.243 114.959 2.31 Q122.873 -5.622 127.139 -16.215 L98.735 -28.445 Q97.06 -23.161 93.296 -19.496 Q89.531 -15.83 84.52 -14.143 L96.539 14.509 Z M98.487 -42.511  127.139 -54.369 Q122.873 -64.838 114.94 -72.77 Q107.008 -80.702 96.539 -84.969 L84.718 -56.317 Q89.357 -54.468 92.942 -50.989 Q96.527 -47.51 98.487 -42.511 Z"/></g><g id="Ultralight-L" transform="matrix(1 0 0 1 491.205 1556)"><path d="M77.428 20.885 Q65.79 20.885 55.541 16.468 Q45.292 12.051 37.711 4.48 Q30.13 -3.092 25.707 -13.328 Q21.285 -23.564 21.285 -35.202 Q21.285 -46.84 25.702 -57.089 Q30.119 -67.338 37.69 -74.919 Q45.262 -82.5 55.498 -86.923 Q65.734 -91.345 77.372 -91.345 Q89.01 -91.345 99.259 -86.928 Q109.508 -82.511 117.089 -74.94 Q124.67 -67.368 129.093 -57.132 Q133.515 -46.896 133.515 -35.258 Q133.515 -23.62 129.098 -13.371 Q124.681 -3.122 117.11 4.459 Q109.538 12.04 99.302 16.463 Q89.066 20.885 77.428 20.885 Z M58.534 13.951  71.434 -15.719 Q66.729 -17.393 63.277 -20.748 Q59.824 -24.104 58.211 -28.941 L27.896 -16.686 Q32.25 -5.882 40.151 2.019 Q48.053 9.92 58.534 13.951 Z M58.211 -41.519 Q59.34 -46.356 62.888 -49.581 Q66.435 -52.806 71.111 -54.419 L58.856 -84.734 Q47.73 -80.38 39.829 -72.398 Q31.928 -64.416 27.896 -53.774 L58.211 -41.519 Z M77.362 -18.46 Q84.334 -18.46 89.252 -23.34 Q94.17 -28.22 94.17 -35.192 Q94.17 -42.164 89.29 -47.082 Q84.41 -52 77.438 -52 Q70.466 -52 65.548 -47.12 Q60.63 -42.24 60.63 -35.268 Q60.63 -28.296 65.51 -23.378 Q70.39 -18.46 77.362 -18.46 Z M96.428 13.951 Q106.748 9.759 114.568 1.938 Q122.389 -5.882 126.581 -16.364 L96.911 -29.264 Q95.46 -24.426 91.993 -21.04 Q88.526 -17.654 83.85 -16.041 L96.428 13.951 Z M96.589 -41.841  126.581 -54.257 Q122.389 -64.577 114.568 -72.398 Q106.748 -80.219 96.428 -84.411 L84.011 -54.419 Q88.204 -52.645 91.509 -49.501 Q94.815 -46.356 96.589 -41.841 Z"/></g><g id="Bold-M" transform="matrix(1 0 0 1 2281.8 1126)"><path d="M60.125 19.02 Q48.875 19.02 39 14.77 Q29.125 10.52 21.75 3.145 Q14.375 -4.23 10.125 -14.105 Q5.875 -23.98 5.875 -35.23 Q5.875 -46.48 10.125 -56.355 Q14.375 -66.23 21.75 -73.605 Q29.125 -80.98 39 -85.23 Q48.875 -89.48 60.125 -89.48 Q71.375 -89.48 81.188 -85.23 Q91 -80.98 98.375 -73.605 Q105.75 -66.23 110 -56.355 Q114.25 -46.48 114.25 -35.23 Q114.25 -23.98 110 -14.105 Q105.75 -4.23 98.375 3.145 Q91 10.52 81.188 14.77 Q71.375 19.02 60.125 19.02 Z M46.125 0.645  50.875 -10.355 Q45.375 -12.355 41.312 -16.48 Q37.25 -20.605 35.125 -25.98 L23.875 -21.605 Q26.875 -13.855 32.625 -8.042 Q38.375 -2.23 46.125 0.645 Z M35.125 -44.48 Q36.875 -50.105 41.062 -54.105 Q45.25 -58.105 50.875 -60.23 L46.125 -71.355 Q38.375 -68.355 32.625 -62.48 Q26.875 -56.605 23.875 -48.855 L35.125 -44.48 Z M60 -24.48 Q64.5 -24.48 67.625 -27.605 Q70.75 -30.73 70.75 -35.23 Q70.75 -39.73 67.625 -42.855 Q64.5 -45.98 60 -45.98 Q55.5 -45.98 52.375 -42.855 Q49.25 -39.73 49.25 -35.23 Q49.25 -30.73 52.375 -27.605 Q55.5 -24.48 60 -24.48 Z M73.875 0.645 Q81.625 -2.23 87.438 -7.98 Q93.25 -13.73 96.125 -21.48 L84.875 -25.98 Q83 -20.48 78.875 -16.542 Q74.75 -12.605 69.375 -10.355 L73.875 0.645 Z M84.875 -44.605  96.125 -49.105 Q93.25 -56.855 87.375 -62.605 Q81.5 -68.355 73.875 -71.355 L69.375 -59.98 Q74.875 -58.105 78.812 -54.042 Q82.75 -49.98 84.875 -44.605 Z"/></g><g id="Semibold-M" transform="matrix(1 0 0 1 1985.97 1126)"><path d="M60.071 17.172 Q49.201 17.172 39.652 13.058 Q30.103 8.944 23 1.841 Q15.897 -5.262 11.783 -14.811 Q7.668 -24.36 7.668 -35.23 Q7.668 -46.1 11.783 -55.648 Q15.897 -65.197 23 -72.301 Q30.103 -79.404 39.652 -83.518 Q49.201 -87.632 60.071 -87.632 Q70.94 -87.632 80.454 -83.518 Q89.968 -79.404 97.071 -72.301 Q104.174 -65.197 108.288 -55.648 Q112.402 -46.1 112.402 -35.23 Q112.402 -24.36 108.288 -14.811 Q104.174 -5.262 97.071 1.841 Q89.968 8.944 80.454 13.058 Q70.94 17.172 60.071 17.172 Z M45.853 1.243  51.147 -10.953 Q45.755 -12.898 41.802 -16.942 Q37.848 -20.985 35.723 -26.306 L23.386 -21.333 Q26.331 -13.475 32.19 -7.581 Q38.049 -1.686 45.853 1.243 Z M35.723 -44.154 Q37.636 -49.616 41.66 -53.589 Q45.685 -57.561 51.147 -59.578 L45.962 -71.844 Q38.103 -68.844 32.245 -62.915 Q26.386 -56.985 23.386 -49.127 L35.723 -44.154 Z M60 -22.632 Q65.261 -22.632 68.929 -26.301 Q72.598 -29.969 72.598 -35.23 Q72.598 -40.491 68.929 -44.159 Q65.261 -47.828 60 -47.828 Q54.739 -47.828 51.071 -44.159 Q47.402 -40.491 47.402 -35.23 Q47.402 -29.969 51.071 -26.301 Q54.739 -22.632 60 -22.632 Z M74.147 1.243 Q81.951 -1.686 87.818 -7.518 Q93.685 -13.35 96.614 -21.154 L84.277 -26.306 Q82.402 -20.915 78.386 -17.032 Q74.37 -13.148 69.103 -10.953 L74.147 1.243 Z M84.277 -44.333  96.614 -49.377 Q93.685 -57.181 87.783 -63.013 Q81.88 -68.844 74.147 -71.844 L69.103 -59.328 Q74.44 -57.453 78.296 -53.499 Q82.152 -49.545 84.277 -44.333 Z"/></g><g id="Medium-M" transform="matrix(1 0 0 1 1689.91 1126)"><path d="M60.03 15.786 Q49.446 15.786 40.141 11.774 Q30.837 7.762 23.938 0.862 Q17.038 -6.037 13.026 -15.341 Q9.014 -24.646 9.014 -35.23 Q9.014 -45.814 13.026 -55.119 Q17.038 -64.423 23.938 -71.322 Q30.837 -78.222 40.141 -82.234 Q49.446 -86.246 60.03 -86.246 Q70.614 -86.246 79.903 -82.234 Q89.193 -78.222 96.092 -71.322 Q102.992 -64.423 107.004 -55.119 Q111.016 -45.814 111.016 -35.23 Q111.016 -24.646 107.004 -15.341 Q102.992 -6.037 96.092 0.862 Q89.193 7.762 79.903 11.774 Q70.614 15.786 60.03 15.786 Z M45.65 1.691  51.35 -11.401 Q46.041 -13.306 42.169 -17.288 Q38.296 -21.271 36.171 -26.551 L23.019 -21.129 Q25.924 -13.189 31.864 -7.234 Q37.804 -1.279 45.65 1.691 Z M36.171 -43.909 Q38.206 -49.249 42.109 -53.201 Q46.011 -57.154 51.35 -59.089 L45.84 -72.211 Q37.9 -69.211 31.959 -63.241 Q26.019 -57.271 23.019 -49.33 L36.171 -43.909 Z M60 -21.246 Q65.832 -21.246 69.908 -25.322 Q73.984 -29.398 73.984 -35.23 Q73.984 -41.061 69.908 -45.138 Q65.832 -49.214 60 -49.214 Q54.169 -49.214 50.092 -45.138 Q46.016 -41.061 46.016 -35.23 Q46.016 -29.398 50.092 -25.322 Q54.169 -21.246 60 -21.246 Z M74.35 1.691 Q82.196 -1.279 88.103 -7.172 Q94.011 -13.064 96.981 -20.909 L83.829 -26.551 Q81.954 -21.241 78.019 -17.398 Q74.084 -13.556 68.9 -11.401 L74.35 1.691 Z M83.829 -44.129  96.981 -49.58 Q94.011 -57.426 88.088 -63.318 Q82.166 -69.211 74.35 -72.211 L68.9 -58.839 Q74.114 -56.964 77.909 -53.091 Q81.704 -49.219 83.829 -44.129 Z"/></g><g id="Regular-M" transform="matrix(1 0 0 1 1394.06 1126)"><path d="M60 14.77 Q49.625 14.77 40.5 10.833 Q31.375 6.895 24.625 0.145 Q17.875 -6.605 13.938 -15.73 Q10 -24.855 10 -35.23 Q10 -45.605 13.938 -54.73 Q17.875 -63.855 24.625 -70.605 Q31.375 -77.355 40.5 -81.292 Q49.625 -85.23 60 -85.23 Q70.375 -85.23 79.5 -81.292 Q88.625 -77.355 95.375 -70.605 Q102.125 -63.855 106.062 -54.73 Q110 -45.605 110 -35.23 Q110 -24.855 106.062 -15.73 Q102.125 -6.605 95.375 0.145 Q88.625 6.895 79.5 10.833 Q70.375 14.77 60 14.77 Z M45.5 2.02  51.5 -11.73 Q46.25 -13.605 42.438 -17.542 Q38.625 -21.48 36.5 -26.73 L22.75 -20.98 Q25.625 -12.98 31.625 -6.98 Q37.625 -0.98 45.5 2.02 Z M36.5 -43.73 Q38.625 -48.98 42.438 -52.917 Q46.25 -56.855 51.5 -58.73 L45.75 -72.48 Q37.75 -69.48 31.75 -63.48 Q25.75 -57.48 22.75 -49.48 L36.5 -43.73 Z M60 -20.23 Q66.25 -20.23 70.625 -24.605 Q75 -28.98 75 -35.23 Q75 -41.48 70.625 -45.855 Q66.25 -50.23 60 -50.23 Q53.75 -50.23 49.375 -45.855 Q45 -41.48 45 -35.23 Q45 -28.98 49.375 -24.605 Q53.75 -20.23 60 -20.23 Z M74.5 2.02 Q82.375 -0.98 88.312 -6.917 Q94.25 -12.855 97.25 -20.73 L83.5 -26.73 Q81.625 -21.48 77.75 -17.667 Q73.875 -13.855 68.75 -11.73 L74.5 2.02 Z M83.5 -43.98  97.25 -49.73 Q94.25 -57.605 88.312 -63.542 Q82.375 -69.48 74.5 -72.48 L68.75 -58.48 Q73.875 -56.605 77.625 -52.792 Q81.375 -48.98 83.5 -43.98 Z"/></g><g id="Light-M" transform="matrix(1 0 0 1 1098.18 1126)"><path d="M60.008 12.27 Q50.154 12.27 41.483 8.53 Q32.812 4.79 26.398 -1.621 Q19.983 -8.033 16.242 -16.7 Q12.5 -25.367 12.5 -35.222 Q12.5 -45.076 16.24 -53.747 Q19.98 -62.418 26.391 -68.832 Q32.803 -75.247 41.47 -78.988 Q50.137 -82.73 59.992 -82.73 Q69.846 -82.73 78.517 -78.99 Q87.188 -75.25 93.602 -68.839 Q100.017 -62.427 103.758 -53.76 Q107.5 -45.093 107.5 -35.238 Q107.5 -25.384 103.76 -16.713 Q100.02 -8.042 93.609 -1.628 Q87.197 4.787 78.53 8.528 Q69.863 12.27 60.008 12.27 Z M45.5 2.02  52.846 -14.711 Q48.165 -16.364 44.765 -19.836 Q41.366 -23.307 39.577 -27.98 L22.654 -20.98 Q25.577 -12.98 31.577 -6.98 Q37.577 -0.98 45.5 2.02 Z M39.577 -42.48 Q41.269 -47.153 44.697 -50.561 Q48.125 -53.97 52.75 -55.653 L45.75 -72.576 Q37.702 -69.528 31.702 -63.528 Q25.702 -57.528 22.654 -49.48 L39.577 -42.48 Z M59.989 -20.999 Q65.913 -20.999 70.072 -25.147 Q74.231 -29.294 74.231 -35.219 Q74.231 -41.143 70.083 -45.302 Q65.936 -49.461 60.011 -49.461 Q54.087 -49.461 49.928 -45.313 Q45.769 -41.166 45.769 -35.241 Q45.769 -29.317 49.917 -25.158 Q54.064 -20.999 59.989 -20.999 Z M74.5 2.02 Q82.375 -0.98 88.312 -6.917 Q94.25 -12.855 97.25 -20.73 L80.519 -28.076 Q78.933 -23.451 75.49 -20.047 Q72.048 -16.644 67.5 -14.807 L74.5 2.02 Z M80.423 -42.73  97.25 -49.73 Q94.25 -57.605 88.312 -63.542 Q82.375 -69.48 74.5 -72.48 L67.5 -55.499 Q71.952 -53.768 75.269 -50.461 Q78.586 -47.153 80.423 -42.73 Z"/></g><g id="Thin-M" transform="matrix(1 0 0 1 802.565 1126)"><path d="M60.017 9.77 Q50.683 9.77 42.465 6.228 Q34.248 2.685 28.17 -3.388 Q22.091 -9.46 18.546 -17.67 Q15 -25.879 15 -35.213 Q15 -44.547 18.542 -52.764 Q22.085 -60.982 28.158 -67.06 Q34.23 -73.138 42.44 -76.684 Q50.649 -80.23 59.983 -80.23 Q69.317 -80.23 77.534 -76.688 Q85.752 -73.145 91.83 -67.072 Q97.909 -61 101.454 -52.79 Q105 -44.581 105 -35.247 Q105 -25.913 101.458 -17.695 Q97.915 -9.478 91.842 -3.4 Q85.77 2.679 77.56 6.224 Q69.351 9.77 60.017 9.77 Z M45.5 2.02  54.192 -17.691 Q50.079 -19.123 47.093 -22.128 Q44.106 -25.134 42.654 -29.23 L22.558 -20.98 Q25.529 -12.98 31.529 -6.98 Q37.529 -0.98 45.5 2.02 Z M42.654 -41.23 Q43.913 -45.326 46.957 -48.206 Q50 -51.086 54 -52.576 L45.75 -72.672 Q37.654 -69.576 31.654 -63.576 Q25.654 -57.576 22.558 -49.48 L42.654 -41.23 Z M59.977 -21.768 Q65.577 -21.768 69.519 -25.688 Q73.462 -29.608 73.462 -35.207 Q73.462 -40.807 69.542 -44.749 Q65.622 -48.691 60.023 -48.691 Q54.423 -48.691 50.481 -44.772 Q46.538 -40.852 46.538 -35.253 Q46.538 -29.653 50.458 -25.711 Q54.378 -21.768 59.977 -21.768 Z M74.5 2.02 Q82.375 -0.98 88.312 -6.917 Q94.25 -12.855 97.25 -20.73 L77.538 -29.422 Q76.24 -25.422 73.231 -22.427 Q70.221 -19.432 66.25 -17.884 L74.5 2.02 Z M77.346 -41.48  97.25 -49.73 Q94.25 -57.605 88.312 -63.542 Q82.375 -69.48 74.5 -72.48 L66.25 -52.518 Q70.029 -50.932 72.913 -48.129 Q75.798 -45.326 77.346 -41.48 Z"/></g><g id="Ultralight-M" transform="matrix(1 0 0 1 506.415 1126)"><path d="M60.022 8.27 Q51 8.27 43.055 4.846 Q35.11 1.422 29.233 -4.447 Q23.357 -10.317 19.928 -18.252 Q16.5 -26.186 16.5 -35.208 Q16.5 -44.23 19.924 -52.175 Q23.348 -60.12 29.217 -65.996 Q35.087 -71.873 43.022 -75.302 Q50.956 -78.73 59.978 -78.73 Q69 -78.73 76.945 -75.306 Q84.89 -71.882 90.766 -66.013 Q96.644 -60.143 100.072 -52.208 Q103.5 -44.273 103.5 -35.252 Q103.5 -26.23 100.076 -18.285 Q96.652 -10.34 90.783 -4.463 Q84.913 1.414 76.978 4.842 Q69.043 8.27 60.022 8.27 Z M45.5 2.02  55 -19.48 Q51.228 -20.778 48.489 -23.504 Q45.75 -26.23 44.5 -29.98 L22.5 -20.98 Q25.5 -12.98 31.5 -6.98 Q37.5 -0.98 45.5 2.02 Z M44.5 -40.48 Q45.5 -44.23 48.312 -46.792 Q51.125 -49.355 54.75 -50.73 L45.75 -72.73 Q37.625 -69.605 31.625 -63.605 Q25.625 -57.605 22.5 -49.48 L44.5 -40.48 Z M59.971 -22.23 Q65.375 -22.23 69.188 -26.013 Q73 -29.796 73 -35.201 Q73 -40.605 69.217 -44.417 Q65.434 -48.23 60.029 -48.23 Q54.625 -48.23 50.812 -44.447 Q47 -40.664 47 -35.259 Q47 -29.855 50.783 -26.042 Q54.566 -22.23 59.971 -22.23 Z M74.5 2.02 Q82.375 -0.98 88.312 -6.917 Q94.25 -12.855 97.25 -20.73 L75.75 -30.23 Q74.625 -26.605 71.875 -23.855 Q69.125 -21.105 65.5 -19.73 L74.5 2.02 Z M75.5 -40.73  97.25 -49.73 Q94.25 -57.605 88.312 -63.542 Q82.375 -69.48 74.5 -72.48 L65.5 -50.73 Q68.875 -49.23 71.5 -46.73 Q74.125 -44.23 75.5 -40.73 Z"/></g><g id="Bold-S" transform="matrix(1 0 0 1 2294.23 696)"><path d="M47.439 5.995 Q38.957 5.995 31.461 2.79 Q23.966 -0.415 18.295 -6.086 Q12.624 -11.757 9.419 -19.253 Q6.213 -26.748 6.213 -35.23 Q6.213 -43.81 9.419 -51.257 Q12.624 -58.703 18.295 -64.374 Q23.966 -70.045 31.461 -73.25 Q38.957 -76.455 47.439 -76.455 Q56.019 -76.455 63.416 -73.25 Q70.813 -70.045 76.484 -64.374 Q82.155 -58.703 85.36 -51.257 Q88.565 -43.81 88.565 -35.23 Q88.565 -26.748 85.36 -19.253 Q82.155 -11.757 76.484 -6.086 Q70.813 -0.415 63.416 2.79 Q56.019 5.995 47.439 5.995 Z M35.998 -7.911  40.338 -16.393 Q36.195 -17.872 33.039 -20.979 Q29.883 -24.085 28.503 -28.129 L19.824 -23.888 Q22.289 -18.464 26.382 -14.321 Q30.475 -10.179 35.998 -7.911 Z M28.503 -42.331 Q29.588 -46.572 32.842 -49.58 Q36.097 -52.588 40.338 -54.166 L35.801 -62.746 Q30.377 -60.379 26.284 -56.188 Q22.191 -51.996 19.824 -46.572 L28.503 -42.331 Z M47.34 -26.748 Q50.891 -26.748 53.356 -29.214 Q55.822 -31.679 55.822 -35.23 Q55.822 -38.78 53.356 -41.246 Q50.891 -43.712 47.34 -43.712 Q43.79 -43.712 41.324 -41.246 Q38.858 -38.78 38.858 -35.23 Q38.858 -31.679 41.324 -29.214 Q43.79 -26.748 47.34 -26.748 Z M58.682 -7.911 Q64.205 -10.179 68.396 -14.321 Q72.588 -18.464 74.856 -23.987 L66.177 -28.129 Q64.797 -23.987 61.641 -20.929 Q58.485 -17.872 54.342 -16.393 L58.682 -7.911 Z M66.177 -42.232  74.856 -46.572 Q72.588 -52.095 68.347 -56.237 Q64.106 -60.379 58.682 -62.746 L54.342 -54.166 Q58.583 -52.785 61.69 -49.629 Q64.797 -46.473 66.177 -42.232 Z"/></g><g id="Semibold-S" transform="matrix(1 0 0 1 1998.1 696)"><path d="M47.396 4.537 Q39.214 4.537 31.976 1.439 Q24.738 -1.659 19.281 -7.115 Q13.825 -12.572 10.726 -19.81 Q7.628 -27.048 7.628 -35.23 Q7.628 -43.51 10.726 -50.699 Q13.825 -57.888 19.281 -63.345 Q24.738 -68.801 31.976 -71.899 Q39.214 -74.997 47.396 -74.997 Q55.676 -74.997 62.837 -71.899 Q69.998 -68.801 75.455 -63.345 Q80.911 -57.888 84.009 -50.699 Q87.107 -43.51 87.107 -35.23 Q87.107 -27.048 84.009 -19.81 Q80.911 -12.572 75.455 -7.115 Q69.998 -1.659 62.837 1.439 Q55.676 4.537 47.396 4.537 Z M35.784 -7.439  40.552 -16.864 Q36.495 -18.301 33.425 -21.343 Q30.355 -24.385 28.974 -28.386 L19.438 -23.674 Q21.86 -18.164 26.039 -13.957 Q30.218 -9.75 35.784 -7.439 Z M28.974 -42.074 Q30.188 -46.186 33.314 -49.173 Q36.44 -52.159 40.552 -53.651 L35.672 -63.132 Q30.162 -60.765 25.983 -56.531 Q21.805 -52.296 19.438 -46.786 L28.974 -42.074 Z M47.34 -25.29 Q51.491 -25.29 54.385 -28.185 Q57.28 -31.079 57.28 -35.23 Q57.28 -39.381 54.385 -42.275 Q51.491 -45.17 47.34 -45.17 Q43.189 -45.17 40.295 -42.275 Q37.4 -39.381 37.4 -35.23 Q37.4 -31.079 40.295 -28.185 Q43.189 -25.29 47.34 -25.29 Z M58.896 -7.439 Q64.462 -9.75 68.697 -13.957 Q72.931 -18.164 75.242 -23.729 L65.706 -28.386 Q64.325 -24.33 61.255 -21.315 Q58.185 -18.301 54.128 -16.864 L58.896 -7.439 Z M65.706 -42.018  75.242 -46.786 Q72.931 -52.352 68.669 -56.559 Q64.406 -60.765 58.896 -63.132 L54.128 -53.651 Q58.24 -52.271 61.283 -49.2 Q64.325 -46.13 65.706 -42.018 Z"/></g><g id="Medium-S" transform="matrix(1 0 0 1 1701.85 696)"><path d="M47.364 3.444 Q39.407 3.444 32.362 0.426 Q25.317 -2.592 20.021 -7.887 Q14.725 -13.183 11.707 -20.228 Q8.69 -27.274 8.69 -35.23 Q8.69 -43.285 11.707 -50.281 Q14.725 -57.277 20.021 -62.573 Q25.317 -67.868 32.362 -70.886 Q39.407 -73.904 47.364 -73.904 Q55.419 -73.904 62.403 -70.886 Q69.387 -67.868 74.683 -62.573 Q79.978 -57.277 82.996 -50.281 Q86.014 -43.285 86.014 -35.23 Q86.014 -27.274 82.996 -20.228 Q79.978 -13.183 74.683 -7.887 Q69.387 -2.592 62.403 0.426 Q55.419 3.444 47.364 3.444 Z M35.623 -7.085  40.713 -17.218 Q36.721 -18.622 33.715 -21.616 Q30.709 -24.611 29.328 -28.579 L19.148 -23.513 Q21.539 -17.938 25.782 -13.684 Q30.025 -9.429 35.623 -7.085 Z M29.328 -41.881 Q30.638 -45.896 33.668 -48.867 Q36.697 -51.838 40.713 -53.266 L35.576 -63.422 Q30.001 -61.055 25.758 -56.788 Q21.515 -52.522 19.148 -46.947 L29.328 -41.881 Z M47.34 -24.197 Q51.941 -24.197 55.157 -27.413 Q58.373 -30.629 58.373 -35.23 Q58.373 -39.831 55.157 -43.047 Q51.941 -46.263 47.34 -46.263 Q42.739 -46.263 39.523 -43.047 Q36.307 -39.831 36.307 -35.23 Q36.307 -30.629 39.523 -27.413 Q42.739 -24.197 47.34 -24.197 Z M59.057 -7.085 Q64.655 -9.429 68.922 -13.684 Q73.188 -17.938 75.532 -23.537 L65.352 -28.579 Q63.971 -24.587 60.965 -21.605 Q57.959 -18.622 53.967 -17.218 L59.057 -7.085 Z M65.352 -41.857  75.532 -46.947 Q73.188 -52.545 68.91 -56.8 Q64.632 -61.055 59.057 -63.422 L53.967 -53.266 Q57.983 -51.885 60.977 -48.879 Q63.971 -45.873 65.352 -41.857 Z"/></g><g id="Regular-S" transform="matrix(1 0 0 1 1405.73 696)"><path d="M47.34 2.642 Q39.549 2.642 32.645 -0.317 Q25.741 -3.275 20.563 -8.453 Q15.386 -13.631 12.427 -20.535 Q9.468 -27.439 9.468 -35.23 Q9.468 -43.12 12.427 -49.974 Q15.386 -56.829 20.563 -62.007 Q25.741 -67.184 32.645 -70.143 Q39.549 -73.102 47.34 -73.102 Q55.23 -73.102 62.084 -70.143 Q68.939 -67.184 74.117 -62.007 Q79.294 -56.829 82.253 -49.974 Q85.212 -43.12 85.212 -35.23 Q85.212 -27.439 82.253 -20.535 Q79.294 -13.631 74.117 -8.453 Q68.939 -3.275 62.084 -0.317 Q55.23 2.642 47.34 2.642 Z M35.505 -6.826  40.831 -17.477 Q36.886 -18.858 33.927 -21.817 Q30.968 -24.776 29.588 -28.721 L18.936 -23.395 Q21.303 -17.773 25.593 -13.483 Q29.883 -9.193 35.505 -6.826 Z M29.588 -41.739 Q30.968 -45.684 33.927 -48.643 Q36.886 -51.602 40.831 -52.982 L35.505 -63.634 Q29.883 -61.267 25.593 -56.977 Q21.303 -52.687 18.936 -47.065 L29.588 -41.739 Z M47.34 -23.395 Q52.271 -23.395 55.723 -26.847 Q59.175 -30.299 59.175 -35.23 Q59.175 -40.161 55.723 -43.613 Q52.271 -47.065 47.34 -47.065 Q42.409 -47.065 38.957 -43.613 Q35.505 -40.161 35.505 -35.23 Q35.505 -30.299 38.957 -26.847 Q42.409 -23.395 47.34 -23.395 Z M59.175 -6.826 Q64.797 -9.193 69.087 -13.483 Q73.377 -17.773 75.744 -23.395 L65.093 -28.721 Q63.712 -24.776 60.753 -21.817 Q57.794 -18.858 53.849 -17.477 L59.175 -6.826 Z M65.093 -41.739  75.744 -47.065 Q73.377 -52.687 69.087 -56.977 Q64.797 -61.267 59.175 -63.634 L53.849 -52.982 Q57.794 -51.602 60.753 -48.643 Q63.712 -45.684 65.093 -41.739 Z"/></g><g id="Light-S" transform="matrix(1 0 0 1 1109.75 696)"><path d="M47.347 0.669 Q39.966 0.669 33.42 -2.134 Q26.875 -4.936 21.962 -9.847 Q17.049 -14.758 14.245 -21.3 Q11.441 -27.843 11.441 -35.223 Q11.441 -42.703 14.244 -49.199 Q17.046 -55.695 21.957 -60.608 Q26.868 -65.521 33.41 -68.325 Q39.953 -71.129 47.333 -71.129 Q54.813 -71.129 61.309 -68.326 Q67.805 -65.524 72.718 -60.613 Q77.631 -55.702 80.435 -49.209 Q83.239 -42.716 83.239 -35.237 Q83.239 -27.856 80.436 -21.31 Q77.634 -14.765 72.723 -9.852 Q67.812 -4.939 61.319 -2.135 Q54.826 0.669 47.347 0.669 Z M35.505 -6.826  41.893 -19.83 Q38.397 -21.035 35.764 -23.626 Q33.131 -26.217 32.015 -29.707 L18.86 -23.395 Q21.265 -17.773 25.555 -13.483 Q29.845 -9.193 35.505 -6.826 Z M32.015 -40.753 Q33.055 -44.243 35.71 -46.784 Q38.365 -49.326 41.817 -50.555 L35.505 -63.71 Q29.845 -61.305 25.555 -57.015 Q21.265 -52.725 18.86 -47.065 L32.015 -40.753 Z M47.331 -24.002 Q52.006 -24.002 55.287 -27.274 Q58.568 -30.546 58.568 -35.221 Q58.568 -39.896 55.296 -43.177 Q52.024 -46.458 47.349 -46.458 Q42.674 -46.458 39.393 -43.186 Q36.112 -39.914 36.112 -35.239 Q36.112 -30.564 39.384 -27.283 Q42.656 -24.002 47.331 -24.002 Z M59.175 -6.826 Q64.797 -9.193 69.087 -13.483 Q73.377 -17.773 75.744 -23.395 L62.74 -29.783 Q61.587 -26.331 58.97 -23.695 Q56.353 -21.058 52.863 -19.905 L59.175 -6.826 Z M62.665 -40.753  75.744 -47.065 Q73.377 -52.687 69.087 -56.977 Q64.797 -61.267 59.175 -63.634 L52.863 -50.63 Q56.277 -49.364 58.894 -46.803 Q61.512 -44.243 62.665 -40.753 Z"/></g><g id="Thin-S" transform="matrix(1 0 0 1 814.015 696)"><path d="M47.353 -1.303 Q40.383 -1.303 34.196 -3.95 Q28.008 -6.597 23.36 -11.241 Q18.712 -15.884 16.063 -22.065 Q13.413 -28.247 13.413 -35.217 Q13.413 -42.286 16.06 -48.424 Q18.707 -54.562 23.351 -59.21 Q27.994 -63.858 34.175 -66.507 Q40.357 -69.157 47.327 -69.157 Q54.396 -69.157 60.534 -66.51 Q66.672 -63.863 71.32 -59.219 Q75.968 -54.576 78.617 -48.444 Q81.267 -42.312 81.267 -35.243 Q81.267 -28.273 78.62 -22.086 Q75.973 -15.898 71.329 -11.25 Q66.686 -6.602 60.554 -3.953 Q54.422 -1.303 47.353 -1.303 Z M35.505 -6.826  42.955 -22.181 Q39.907 -23.212 37.6 -25.435 Q35.293 -27.659 34.443 -30.693 L18.784 -23.395 Q21.227 -17.773 25.517 -13.483 Q29.808 -9.193 35.505 -6.826 Z M34.443 -39.767 Q35.141 -42.801 37.493 -44.926 Q39.845 -47.05 42.803 -48.127 L35.505 -63.786 Q29.808 -61.343 25.517 -57.053 Q21.227 -52.762 18.784 -47.065 L34.443 -39.767 Z M47.322 -24.609 Q51.74 -24.609 54.851 -27.701 Q57.961 -30.794 57.961 -35.212 Q57.961 -39.63 54.869 -42.741 Q51.776 -45.851 47.358 -45.851 Q42.94 -45.851 39.829 -42.759 Q36.719 -39.666 36.719 -35.248 Q36.719 -30.83 39.811 -27.719 Q42.904 -24.609 47.322 -24.609 Z M59.175 -6.826 Q64.797 -9.193 69.087 -13.483 Q73.377 -17.773 75.744 -23.395 L60.389 -30.845 Q59.463 -27.886 57.187 -25.572 Q54.911 -23.258 51.877 -22.333 L59.175 -6.826 Z M60.237 -39.767  75.744 -47.065 Q73.377 -52.687 69.087 -56.977 Q64.797 -61.267 59.175 -63.634 L51.877 -48.279 Q54.76 -47.126 57.036 -44.964 Q59.312 -42.801 60.237 -39.767 Z"/></g><g id="Ultralight-S" transform="matrix(1 0 0 1 517.792 696)"><path d="M47.357 -2.486 Q40.634 -2.486 34.661 -5.04 Q28.688 -7.594 24.199 -12.077 Q19.71 -16.56 17.153 -22.525 Q14.597 -28.489 14.597 -35.213 Q14.597 -42.035 17.15 -47.958 Q19.704 -53.882 24.187 -58.371 Q28.67 -62.86 34.635 -65.417 Q40.599 -67.973 47.323 -67.973 Q54.145 -67.973 60.068 -65.42 Q65.992 -62.866 70.481 -58.383 Q74.97 -53.9 77.527 -47.985 Q80.084 -42.069 80.084 -35.247 Q80.084 -28.523 77.53 -22.551 Q74.976 -16.578 70.493 -12.089 Q66.01 -7.6 60.095 -5.043 Q54.179 -2.486 47.357 -2.486 Z M35.505 -6.826  43.592 -23.592 Q40.813 -24.518 38.702 -26.521 Q36.59 -28.523 35.9 -31.285 L18.739 -23.395 Q21.204 -17.773 25.495 -13.483 Q29.785 -9.193 35.505 -6.826 Z M35.9 -39.175 Q36.393 -41.936 38.562 -43.81 Q40.732 -45.684 43.395 -46.67 L35.505 -63.831 Q29.785 -61.366 25.495 -57.075 Q21.204 -52.785 18.739 -47.065 L35.9 -39.175 Z M47.317 -24.973 Q51.581 -24.973 54.589 -27.958 Q57.597 -30.943 57.597 -35.207 Q57.597 -39.471 54.612 -42.479 Q51.627 -45.487 47.363 -45.487 Q43.099 -45.487 40.091 -42.502 Q37.083 -39.517 37.083 -35.253 Q37.083 -30.989 40.068 -27.981 Q43.053 -24.973 47.317 -24.973 Z M59.175 -6.826 Q64.797 -9.193 69.087 -13.483 Q73.377 -17.773 75.744 -23.395 L58.978 -31.482 Q58.189 -28.819 56.118 -26.699 Q54.047 -24.578 51.285 -23.789 L59.175 -6.826 Z M58.781 -39.175  75.744 -47.065 Q73.377 -52.687 69.087 -56.977 Q64.797 -61.267 59.175 -63.634 L51.285 -46.868 Q53.849 -45.783 55.92 -43.86 Q57.992 -41.936 58.781 -39.175 Z"/></g></g></svg>