<svg xmlns="http://www.w3.org/2000/svg" version="1.1" width="3300" height="2000"><g id="Notes"><style>
    text {
      font-family: monospace;
      text-anchor: middle;
    }
    text.emphasis {
      font-weight:bold;
    }
    text.lanchor {
      text-anchor: start;
    }
  </style><rect height="2200" id="artboard" fill="white" width="3300" x="0" y="0"/><line id="" style="fill:none;stroke:black;stroke-width:0.5;" x1="263" x2="3036" y1="292" y2="292"/><text class="lanchor emphasis" transform="matrix(1 0 0 1 263 322)">Weight/Scale Variations</text><text transform="matrix(1 0 0 1 559.711 322)">Ultralight</text><text transform="matrix(1 0 0 1 856.422 322)">Thin</text><text transform="matrix(1 0 0 1 1153.13 322)">Light</text><text transform="matrix(1 0 0 1 1449.84 322)">Regular</text><text transform="matrix(1 0 0 1 1746.56 322)">Medium</text><text transform="matrix(1 0 0 1 2043.27 322)">Semibold</text><text transform="matrix(1 0 0 1 2339.98 322)">Bold</text><text transform="matrix(1 0 0 1 2636.69 322)">Heavy</text><text transform="matrix(1 0 0 1 2933.4 322)">Black</text><text id="template-version" style="text-anchor: end;" transform="matrix(1 0 0 1 3036 1933)">Template v.1.0</text><text class="lanchor" transform="matrix(1 0 0 1 263 726)">Small</text><text class="lanchor" transform="matrix(1 0 0 1 263 1156)">Medium</text><text class="lanchor" transform="matrix(1 0 0 1 263 1586)">Large</text></g><g id="Guides"><g id="H-reference" style="fill:#27AAE1;stroke:none;" transform="matrix(1 0 0 1 339 696)"><path d="M 54.9316 0 L 57.666 0 L 30.5664 -70.459 L 28.0762 -70.459 L 0.976562 0 L 3.66211 0 L 12.9395 -24.4629 L 45.7031 -24.4629 Z M 29.1992 -67.0898 L 29.4434 -67.0898 L 44.8242 -26.709 L 13.8184 -26.709 Z"/></g><line id="Baseline-S" style="fill:none;stroke:#27AAE1;opacity:1;stroke-width:0.577;" x1="263" x2="3036" y1="696" y2="696"/><line id="Capline-S" style="fill:none;stroke:#27AAE1;opacity:1;stroke-width:0.577;" x1="263" x2="3036" y1="625.541" y2="625.541"/><g id="H-reference" style="fill:#27AAE1;stroke:none;" transform="matrix(1 0 0 1 339 1126)"><path d="M 54.9316 0 L 57.666 0 L 30.5664 -70.459 L 28.0762 -70.459 L 0.976562 0 L 3.66211 0 L 12.9395 -24.4629 L 45.7031 -24.4629 Z M 29.1992 -67.0898 L 29.4434 -67.0898 L 44.8242 -26.709 L 13.8184 -26.709 Z"/></g><line id="Baseline-M" style="fill:none;stroke:#27AAE1;opacity:1;stroke-width:0.577;" x1="263" x2="3036" y1="1126" y2="1126"/><line id="Capline-M" style="fill:none;stroke:#27AAE1;opacity:1;stroke-width:0.577;" x1="263" x2="3036" y1="1055.54" y2="1055.54"/><g id="H-reference" style="fill:#27AAE1;stroke:none;" transform="matrix(1 0 0 1 339 1556)"><path d="M 54.9316 0 L 57.666 0 L 30.5664 -70.459 L 28.0762 -70.459 L 0.976562 0 L 3.66211 0 L 12.9395 -24.4629 L 45.7031 -24.4629 Z M 29.1992 -67.0898 L 29.4434 -67.0898 L 44.8242 -26.709 L 13.8184 -26.709 Z"/></g><line id="Baseline-L" style="fill:none;stroke:#27AAE1;opacity:1;stroke-width:0.577;" x1="263" x2="3036" y1="1556" y2="1556"/><line id="Capline-L" style="fill:none;stroke:#27AAE1;opacity:1;stroke-width:0.577;" x1="263" x2="3036" y1="1485.54" y2="1485.54"/><rect height="119.336" id="left-margin" style="fill:darkred;stroke:none;opacity:0.4;" width="12.4512" x="1394.06" y="1030.79"/><rect height="119.336" id="right-margin" style="fill:darkgreen;stroke:none;opacity:0.4;" width="12.4512" x="1502.5112" y="1030.79"/><rect x="1406.5112" y="1045" width="96" height="96" fill="none" stroke="blue" stroke-dasharray="5"/><rect x="1394.06" y="1030.79" width="120.9024" height="119.336" fill="none" stroke="blue"/></g><g id="Symbols"><g id="Bold-L" transform="matrix(1 0 0 1 2266 1556)"><path d="M77.465 33.301 Q63.135 33.301 50.677 27.966 Q38.22 22.632 28.879 13.291 Q19.538 3.95 14.204 -8.485 Q8.869 -20.92 8.869 -35.251 Q8.869 -49.581 14.22 -62.076 Q19.57 -74.571 28.839 -83.84 Q38.107 -93.109 50.636 -98.516 Q63.165 -103.922 77.4 -103.922 Q83.979 -103.922 90.127 -102.564 Q96.276 -101.206 102.071 -98.924 V-82.637 Q96.428 -85.379 90.3 -86.991 Q84.172 -88.604 77.476 -88.604 Q55.116 -88.604 39.571 -73.152 Q24.026 -57.7 24.026 -35.336 Q24.026 -12.973 39.583 2.585 Q55.14 18.144 77.396 18.144 Q99.653 18.144 115.213 2.628 Q130.774 -12.887 130.774 -35.23 Q130.774 -39.99 129.968 -44.625 Q129.161 -49.259 127.549 -53.451 H143.351 Q144.48 -49.03 145.286 -44.557 Q146.093 -40.083 146.093 -35.23 Q146.093 -20.995 140.686 -8.466 Q135.279 4.063 126.01 13.331 Q116.741 22.6 104.268 27.95 Q91.796 33.301 77.465 33.301 Z M127.871 -62.965 V-79.251 H111.585 V-94.409 H127.871 V-110.856 H143.029 V-94.409 H159.476 V-79.251 H143.029 V-62.965 H127.871 Z M99.975 -42.809 Q103.926 -42.809 106.788 -45.671 Q109.65 -48.533 109.65 -52.484 Q109.65 -56.434 106.788 -59.297 Q103.926 -62.159 99.975 -62.159 Q96.024 -62.159 93.243 -59.353 Q90.461 -56.548 90.461 -52.541 Q90.461 -48.533 93.236 -45.671 Q96.011 -42.809 99.975 -42.809 Z M54.825 -42.809 Q58.776 -42.809 61.557 -45.614 Q64.339 -48.419 64.339 -52.427 Q64.339 -56.434 61.564 -59.297 Q58.789 -62.159 54.825 -62.159 Q50.874 -62.159 48.012 -59.297 Q45.15 -56.434 45.15 -52.484 Q45.15 -48.533 48.012 -45.671 Q50.874 -42.809 54.825 -42.809 Z M77.4 0.084 Q88.526 0.084 97.718 -6.072 Q106.909 -12.228 110.618 -22.652 H44.183 Q48.053 -12.228 57.163 -6.072 Q66.274 0.084 77.4 0.084 Z"/></g><g id="Semibold-L" transform="matrix(1 0 0 1 1970.27 1556)"><path d="M77.455 31.549 Q63.555 31.549 51.413 26.325 Q39.27 21.101 30.169 12.001 Q21.069 2.9 15.845 -9.23 Q10.621 -21.36 10.621 -35.26 Q10.621 -49.161 15.861 -61.341 Q21.101 -73.521 30.137 -82.546 Q39.174 -91.571 51.39 -96.835 Q63.606 -102.1 77.4 -102.1 Q84.329 -102.1 90.791 -100.631 Q97.253 -99.162 103.263 -96.61 V-82.708 Q97.409 -85.799 90.966 -87.517 Q84.523 -89.235 77.459 -89.235 Q54.906 -89.235 39.151 -73.56 Q23.395 -57.886 23.395 -35.324 Q23.395 -12.763 39.163 3.006 Q54.931 18.775 77.432 18.775 Q99.933 18.775 115.669 3.04 Q131.405 -12.694 131.405 -35.23 Q131.405 -40.359 130.493 -45.265 Q129.582 -50.17 127.759 -54.643 H141.178 Q142.587 -49.942 143.428 -45.173 Q144.27 -40.403 144.27 -35.23 Q144.27 -21.436 139.005 -9.22 Q133.741 2.996 124.716 12.033 Q115.691 21.069 103.523 26.309 Q91.356 31.549 77.455 31.549 Z M129.063 -64.928 V-80.443 H113.548 V-93.217 H129.063 V-108.823 H141.837 V-93.217 H157.443 V-80.443 H141.837 V-64.928 H129.063 Z M100.396 -43.229 Q104.206 -43.229 106.928 -45.951 Q109.65 -48.673 109.65 -52.484 Q109.65 -56.294 106.928 -59.016 Q104.206 -61.738 100.396 -61.738 Q96.585 -61.738 93.909 -59.048 Q91.232 -56.358 91.232 -52.516 Q91.232 -48.673 93.905 -45.951 Q96.578 -43.229 100.396 -43.229 Z M54.404 -43.229 Q58.215 -43.229 60.891 -45.919 Q63.568 -48.609 63.568 -52.451 Q63.568 -56.294 60.895 -59.016 Q58.222 -61.738 54.404 -61.738 Q50.594 -61.738 47.872 -59.016 Q45.15 -56.294 45.15 -52.484 Q45.15 -48.673 47.872 -45.951 Q50.594 -43.229 54.404 -43.229 Z M77.4 0.084 Q88.316 0.084 97.402 -5.884 Q106.488 -11.853 110.337 -22.022 H44.463 Q48.473 -11.853 57.479 -5.884 Q66.484 0.084 77.4 0.084 Z"/></g><g id="Medium-L" transform="matrix(1 0 0 1 1674.31 1556)"><path d="M77.448 30.234 Q63.871 30.234 51.964 25.094 Q40.058 19.953 31.137 11.033 Q22.217 2.112 17.076 -9.789 Q11.936 -21.69 11.936 -35.268 Q11.936 -48.845 17.093 -60.789 Q22.249 -72.734 31.111 -81.576 Q39.974 -90.417 51.955 -95.575 Q63.935 -100.733 77.4 -100.733 Q84.592 -100.733 91.289 -99.181 Q97.986 -97.629 104.157 -94.875 V-82.76 Q98.145 -86.115 91.466 -87.911 Q84.786 -89.708 77.445 -89.708 Q54.749 -89.708 38.836 -73.867 Q22.922 -58.025 22.922 -35.315 Q22.922 -12.605 38.848 3.322 Q54.774 19.248 77.459 19.248 Q100.143 19.248 116.011 3.349 Q131.878 -12.55 131.878 -35.23 Q131.878 -40.636 130.888 -45.745 Q129.897 -50.854 127.917 -55.537 H139.548 Q141.167 -50.625 142.035 -45.634 Q142.903 -40.644 142.903 -35.23 Q142.903 -21.765 137.745 -9.785 Q132.587 2.196 123.746 11.059 Q114.904 19.921 102.965 25.078 Q91.026 30.234 77.448 30.234 Z M129.957 -66.4 V-81.337 H115.02 V-92.323 H129.957 V-107.298 H140.943 V-92.323 H155.918 V-81.337 H140.943 V-66.4 H129.957 Z M100.711 -43.545 Q104.416 -43.545 107.033 -46.162 Q109.65 -48.779 109.65 -52.484 Q109.65 -56.189 107.033 -58.806 Q104.416 -61.423 100.711 -61.423 Q97.006 -61.423 94.408 -58.819 Q91.811 -56.216 91.811 -52.497 Q91.811 -48.779 94.407 -46.162 Q97.003 -43.545 100.711 -43.545 Z M54.089 -43.545 Q57.794 -43.545 60.392 -46.148 Q62.989 -48.751 62.989 -52.47 Q62.989 -56.189 60.393 -58.806 Q57.797 -61.423 54.089 -61.423 Q50.384 -61.423 47.767 -58.806 Q45.15 -56.189 45.15 -52.484 Q45.15 -48.779 47.767 -46.162 Q50.384 -43.545 54.089 -43.545 Z M77.4 0.084 Q88.158 0.084 97.165 -5.744 Q106.173 -11.571 110.127 -21.548 H44.673 Q48.789 -11.571 57.715 -5.744 Q66.642 0.084 77.4 0.084 Z"/></g><g id="Regular-L" transform="matrix(1 0 0 1 1378.56 1556)"><path d="M77.443 29.27 Q64.102 29.27 52.369 24.191 Q40.635 19.111 31.847 10.323 Q23.059 1.535 17.979 -10.199 Q12.9 -21.932 12.9 -35.273 Q12.9 -48.614 17.995 -60.385 Q23.091 -72.156 31.826 -80.864 Q40.561 -89.571 52.369 -94.651 Q64.177 -99.73 77.4 -99.73 Q84.785 -99.73 91.654 -98.117 Q98.524 -96.505 104.812 -93.602 V-82.799 Q98.685 -86.346 91.832 -88.201 Q84.979 -90.055 77.435 -90.055 Q54.634 -90.055 38.605 -74.091 Q22.575 -58.127 22.575 -35.308 Q22.575 -12.489 38.617 3.553 Q54.659 19.595 77.478 19.595 Q100.297 19.595 116.261 3.576 Q132.225 -12.443 132.225 -35.23 Q132.225 -40.839 131.177 -46.097 Q130.129 -51.355 128.032 -56.192 H138.352 Q140.126 -51.127 141.013 -45.973 Q141.9 -40.82 141.9 -35.23 Q141.9 -22.007 136.821 -10.199 Q131.741 1.609 123.034 10.344 Q114.326 19.079 102.555 24.175 Q90.784 29.27 77.443 29.27 Z M130.613 -67.48 V-81.992 H116.1 V-91.667 H130.613 V-106.18 H140.287 V-91.667 H154.8 V-81.992 H140.287 V-67.48 H130.613 Z M100.943 -43.776 Q104.571 -43.776 107.11 -46.316 Q109.65 -48.856 109.65 -52.484 Q109.65 -56.112 107.11 -58.652 Q104.571 -61.191 100.943 -61.191 Q97.314 -61.191 94.775 -58.652 Q92.235 -56.112 92.235 -52.484 Q92.235 -48.856 94.775 -46.316 Q97.314 -43.776 100.943 -43.776 Z M53.858 -43.776 Q57.486 -43.776 60.025 -46.316 Q62.565 -48.856 62.565 -52.484 Q62.565 -56.112 60.025 -58.652 Q57.486 -61.191 53.858 -61.191 Q50.229 -61.191 47.69 -58.652 Q45.15 -56.112 45.15 -52.484 Q45.15 -48.856 47.69 -46.316 Q50.229 -43.776 53.858 -43.776 Z M77.4 0.084 Q88.043 0.084 96.992 -5.641 Q105.941 -11.365 109.972 -21.201 H44.828 Q49.02 -11.365 57.889 -5.641 Q66.758 0.084 77.4 0.084 Z"/></g><g id="Light-L" transform="matrix(1 0 0 1 1082.77 1556)"><path d="M77.454 26.045 Q64.722 26.045 53.592 21.22 Q42.462 16.396 34.12 8.045 Q25.779 -0.307 20.952 -11.419 Q16.125 -22.531 16.125 -35.231 Q16.125 -47.932 20.967 -59.117 Q25.808 -70.303 34.108 -78.577 Q42.407 -86.851 53.596 -91.678 Q64.785 -96.505 77.4 -96.505 Q84.406 -96.505 90.969 -94.985 Q97.531 -93.466 103.51 -90.687 V-82.489 Q97.631 -85.788 91.126 -87.487 Q84.621 -89.187 77.456 -89.187 Q55.007 -89.187 39.225 -73.459 Q23.443 -57.732 23.443 -35.297 Q23.443 -12.861 39.229 2.933 Q55.015 18.727 77.47 18.727 Q99.925 18.727 115.641 2.961 Q131.357 -12.804 131.357 -35.23 Q131.357 -40.461 130.433 -45.381 Q129.509 -50.301 127.598 -54.89 H135.437 Q137.087 -50.134 137.881 -45.303 Q138.675 -40.471 138.675 -35.23 Q138.675 -22.615 133.85 -11.413 Q129.026 -0.211 120.755 8.076 Q112.484 16.362 101.304 21.203 Q90.123 26.045 77.454 26.045 Z M131.791 -69.093 V-83.171 H117.713 V-90.489 H131.791 V-104.567 H139.109 V-90.489 H153.187 V-83.171 H139.109 V-69.093 H131.791 Z M100.089 -44.458 Q103.268 -44.458 105.529 -46.734 Q107.789 -49.009 107.789 -52.188 Q107.789 -55.368 105.514 -57.628 Q103.239 -59.889 100.059 -59.889 Q96.88 -59.889 94.62 -57.614 Q92.359 -55.338 92.359 -52.159 Q92.359 -48.98 94.634 -46.719 Q96.909 -44.458 100.089 -44.458 Z M54.741 -44.458 Q57.92 -44.458 60.18 -46.734 Q62.441 -49.009 62.441 -52.188 Q62.441 -55.368 60.166 -57.628 Q57.891 -59.889 54.711 -59.889 Q51.532 -59.889 49.271 -57.614 Q47.011 -55.338 47.011 -52.159 Q47.011 -48.98 49.286 -46.719 Q51.561 -44.458 54.741 -44.458 Z M77.4 -1.839 Q87.389 -1.839 95.673 -7.16 Q103.956 -12.481 107.926 -21.511 H46.874 Q50.943 -12.481 59.177 -7.16 Q67.411 -1.839 77.4 -1.839 Z"/></g><g id="Thin-L" transform="matrix(1 0 0 1 787.282 1556)"><path d="M77.465 22.82 Q65.342 22.82 54.816 18.25 Q44.289 13.681 36.393 5.766 Q28.498 -2.148 23.924 -12.639 Q19.35 -23.129 19.35 -35.189 Q19.35 -47.249 23.937 -57.85 Q28.525 -68.45 36.389 -76.291 Q44.253 -84.132 54.823 -88.706 Q65.392 -93.28 77.4 -93.28 Q84.028 -93.28 90.284 -91.854 Q96.539 -90.427 102.208 -87.773 V-82.179 Q96.576 -85.23 90.42 -86.774 Q84.264 -88.318 77.477 -88.318 Q55.38 -88.318 39.846 -72.828 Q24.312 -57.337 24.312 -35.285 Q24.312 -13.233 39.841 2.313 Q55.372 17.858 77.462 17.858 Q99.553 17.858 115.021 2.347 Q130.488 -13.165 130.488 -35.23 Q130.488 -40.084 129.688 -44.665 Q128.888 -49.246 127.164 -53.588 H132.523 Q134.048 -49.142 134.749 -44.632 Q135.45 -40.122 135.45 -35.23 Q135.45 -23.222 130.88 -12.626 Q126.311 -2.031 118.477 5.807 Q110.643 13.645 100.053 18.233 Q89.462 22.82 77.465 22.82 Z M132.969 -70.705 V-84.349 H119.325 V-89.311 H132.969 V-102.955 H137.931 V-89.311 H151.575 V-84.349 H137.931 V-70.705 H132.969 Z M99.235 -45.141 Q101.966 -45.141 103.947 -47.151 Q105.929 -49.162 105.929 -51.893 Q105.929 -54.623 103.918 -56.605 Q101.907 -58.586 99.177 -58.586 Q96.446 -58.586 94.465 -56.576 Q92.483 -54.565 92.483 -51.834 Q92.483 -49.104 94.494 -47.122 Q96.504 -45.141 99.235 -45.141 Z M55.623 -45.141 Q58.354 -45.141 60.335 -47.151 Q62.317 -49.162 62.317 -51.893 Q62.317 -54.623 60.306 -56.605 Q58.296 -58.586 55.565 -58.586 Q52.834 -58.586 50.853 -56.576 Q48.871 -54.565 48.871 -51.834 Q48.871 -49.104 50.882 -47.122 Q52.893 -45.141 55.623 -45.141 Z M77.4 -3.761 Q86.736 -3.761 94.354 -8.68 Q101.972 -13.598 105.879 -21.821 H48.921 Q52.865 -13.598 60.465 -8.68 Q68.064 -3.761 77.4 -3.761 Z"/></g><g id="Ultralight-L" transform="matrix(1 0 0 1 491.205 1556)"><path d="M77.471 20.885 Q65.715 20.885 55.55 16.468 Q45.385 12.051 37.757 4.399 Q30.13 -3.253 25.707 -13.371 Q21.285 -23.488 21.285 -35.164 Q21.285 -46.84 25.72 -57.089 Q30.155 -67.338 37.758 -74.919 Q45.361 -82.5 55.559 -86.923 Q65.756 -91.345 77.4 -91.345 Q83.801 -91.345 89.873 -89.974 Q95.944 -88.604 101.426 -86.024 V-81.992 Q95.944 -84.895 89.996 -86.346 Q84.049 -87.797 77.49 -87.797 Q55.604 -87.797 40.218 -72.449 Q24.832 -57.1 24.832 -35.278 Q24.832 -13.457 40.209 1.94 Q55.585 17.338 77.458 17.338 Q99.33 17.338 114.649 1.978 Q129.968 -13.382 129.968 -35.23 Q129.968 -39.857 129.242 -44.235 Q128.516 -48.614 126.904 -52.806 H130.774 Q132.225 -48.547 132.87 -44.23 Q133.515 -39.913 133.515 -35.23 Q133.515 -23.586 129.098 -13.354 Q124.681 -3.123 117.11 4.446 Q109.538 12.015 99.302 16.45 Q89.066 20.885 77.471 20.885 Z M133.676 -71.672 V-85.056 H120.293 V-88.604 H133.676 V-101.987 H137.224 V-88.604 H150.608 V-85.056 H137.224 V-71.672 H133.676 Z M98.723 -45.55 Q101.184 -45.55 102.998 -47.402 Q104.812 -49.254 104.812 -51.715 Q104.812 -54.177 102.961 -55.991 Q101.108 -57.805 98.647 -57.805 Q96.186 -57.805 94.372 -55.953 Q92.558 -54.101 92.558 -51.64 Q92.558 -49.178 94.409 -47.364 Q96.262 -45.55 98.723 -45.55 Z M56.153 -45.55 Q58.614 -45.55 60.428 -47.402 Q62.242 -49.254 62.242 -51.715 Q62.242 -54.177 60.391 -55.991 Q58.538 -57.805 56.077 -57.805 Q53.616 -57.805 51.802 -55.953 Q49.988 -54.101 49.988 -51.64 Q49.988 -49.178 51.839 -47.364 Q53.692 -45.55 56.153 -45.55 Z M77.4 -4.915 Q86.344 -4.915 93.562 -9.591 Q100.781 -14.267 104.651 -22.007 H50.149 Q54.019 -14.267 61.238 -9.591 Q68.456 -4.915 77.4 -4.915 Z"/></g><g id="Bold-M" transform="matrix(1 0 0 1 2281.8 1126)"><path d="M60 19.02 Q48.625 19.02 38.752 14.76 Q28.878 10.499 21.575 3.196 Q14.271 -4.108 10.011 -13.982 Q5.75 -23.855 5.75 -35.23 Q5.75 -46.605 10.011 -56.478 Q14.271 -66.352 21.575 -73.655 Q28.878 -80.959 38.752 -85.219 Q48.625 -89.48 60 -89.48 Q64.5 -89.48 68.816 -88.739 Q73.132 -87.999 77.125 -86.605 V-69.605 Q73.25 -71.48 69 -72.605 Q64.75 -73.73 60 -73.73 Q43.998 -73.73 32.749 -62.542 Q21.5 -51.355 21.5 -35.23 Q21.5 -19.105 32.749 -7.917 Q43.998 3.27 59.999 3.27 Q76 3.27 87.25 -7.917 Q98.5 -19.105 98.5 -35.23 Q98.5 -38.447 98 -41.464 Q97.5 -44.48 96.5 -47.355 H112.875 Q113.5 -44.48 113.875 -41.481 Q114.25 -38.483 114.25 -35.23 Q114.25 -23.855 109.99 -13.982 Q105.729 -4.108 98.425 3.196 Q91.122 10.499 81.248 14.76 Q71.375 19.02 60 19.02 Z M97.125 -55.48 V-67.355 H85.25 V-83.105 H97.125 V-94.98 H112.875 V-83.105 H124.75 V-67.355 H112.875 V-55.48 H97.125 Z M76.5 -39.23 Q80.125 -39.23 82.562 -41.667 Q85 -44.105 85 -47.73 Q85 -51.355 82.562 -53.792 Q80.125 -56.23 76.562 -56.23 Q73 -56.23 70.562 -53.759 Q68.125 -51.289 68.125 -47.759 Q68.125 -44.23 70.568 -41.73 Q73.01 -39.23 76.5 -39.23 Z M43.438 -39.23 Q47 -39.23 49.438 -41.701 Q51.875 -44.171 51.875 -47.701 Q51.875 -51.23 49.432 -53.73 Q46.99 -56.23 43.5 -56.23 Q39.875 -56.23 37.438 -53.792 Q35 -51.355 35 -47.73 Q35 -44.105 37.438 -41.667 Q39.875 -39.23 43.438 -39.23 Z M60 -7.73 Q69 -7.73 76.125 -12.98 Q83.25 -18.23 86.125 -26.73 H33.875 Q36.75 -18.23 43.875 -12.98 Q51 -7.73 60 -7.73 Z"/></g><g id="Semibold-M" transform="matrix(1 0 0 1 1985.97 1126)"><path d="M60 17.172 Q49.06 17.172 39.512 13.052 Q29.964 8.932 22.901 1.869 Q15.838 -5.194 11.718 -14.742 Q7.598 -24.29 7.598 -35.23 Q7.598 -46.17 11.718 -55.718 Q15.838 -65.266 22.901 -72.329 Q29.964 -79.392 39.512 -83.512 Q49.06 -87.632 60 -87.632 Q64.88 -87.632 69.494 -86.752 Q74.107 -85.871 78.375 -84.214 V-69.714 Q74.282 -71.86 69.679 -73.121 Q65.076 -74.382 60 -74.382 Q43.727 -74.382 32.288 -62.977 Q20.848 -51.572 20.848 -35.23 Q20.848 -18.888 32.288 -7.483 Q43.727 3.922 59.999 3.922 Q76.272 3.922 87.712 -7.483 Q99.152 -18.888 99.152 -35.23 Q99.152 -38.788 98.516 -42.123 Q97.88 -45.458 96.717 -48.605 H110.647 Q111.489 -45.404 111.946 -42.106 Q112.402 -38.808 112.402 -35.23 Q112.402 -24.29 108.282 -14.742 Q104.162 -5.194 97.099 1.869 Q90.036 8.932 80.488 13.052 Q70.94 17.172 60 17.172 Z M98.375 -57.545 V-68.605 H87.315 V-81.855 H98.375 V-92.915 H111.625 V-81.855 H122.685 V-68.605 H111.625 V-57.545 H98.375 Z M76.935 -39.665 Q80.342 -39.665 82.671 -41.994 Q85 -44.322 85 -47.73 Q85 -51.138 82.671 -53.466 Q80.342 -55.795 76.97 -55.795 Q73.598 -55.795 71.269 -53.448 Q68.94 -51.1 68.94 -47.747 Q68.94 -44.393 71.272 -42.029 Q73.604 -39.665 76.935 -39.665 Z M43.03 -39.665 Q46.402 -39.665 48.731 -42.012 Q51.06 -44.36 51.06 -47.713 Q51.06 -51.067 48.728 -53.431 Q46.396 -55.795 43.065 -55.795 Q39.658 -55.795 37.329 -53.466 Q35 -51.138 35 -47.73 Q35 -44.322 37.329 -41.994 Q39.658 -39.665 43.03 -39.665 Z M60 -7.73 Q68.783 -7.73 75.826 -12.79 Q82.87 -17.85 85.853 -26.078 H34.147 Q37.13 -17.85 44.174 -12.79 Q51.217 -7.73 60 -7.73 Z"/></g><g id="Medium-M" transform="matrix(1 0 0 1 1689.91 1126)"><path d="M60 15.786 Q49.386 15.786 40.082 11.772 Q30.778 7.757 23.895 0.875 Q17.013 -6.008 12.998 -15.312 Q8.984 -24.616 8.984 -35.23 Q8.984 -45.844 12.998 -55.148 Q17.013 -64.452 23.895 -71.334 Q30.778 -78.217 40.082 -82.232 Q49.386 -86.246 60 -86.246 Q65.166 -86.246 70.002 -85.261 Q74.839 -84.275 79.312 -82.42 V-69.795 Q75.057 -72.146 70.189 -73.508 Q65.321 -74.871 60 -74.871 Q43.524 -74.871 31.941 -63.303 Q20.359 -51.735 20.359 -35.23 Q20.359 -18.725 31.941 -7.157 Q43.524 4.411 60 4.411 Q76.475 4.411 88.058 -7.157 Q99.641 -18.725 99.641 -35.23 Q99.641 -39.043 98.903 -42.617 Q98.166 -46.192 96.88 -49.542 H108.976 Q109.981 -46.097 110.499 -42.574 Q111.016 -39.051 111.016 -35.23 Q111.016 -24.616 107.002 -15.312 Q102.987 -6.008 96.105 0.875 Q89.222 7.757 79.918 11.772 Q70.614 15.786 60 15.786 Z M99.312 -59.094 V-69.542 H88.864 V-80.917 H99.312 V-91.366 H110.688 V-80.917 H121.136 V-69.542 H110.688 V-59.094 H99.312 Z M77.261 -39.991 Q80.505 -39.991 82.753 -42.238 Q85 -44.485 85 -47.73 Q85 -50.975 82.753 -53.222 Q80.505 -55.469 77.276 -55.469 Q74.046 -55.469 71.799 -53.214 Q69.552 -50.959 69.552 -47.737 Q69.552 -44.515 71.8 -42.253 Q74.049 -39.991 77.261 -39.991 Z M42.724 -39.991 Q45.954 -39.991 48.201 -42.246 Q50.448 -44.501 50.448 -47.723 Q50.448 -50.945 48.2 -53.207 Q45.951 -55.469 42.739 -55.469 Q39.495 -55.469 37.247 -53.222 Q35 -50.975 35 -47.73 Q35 -44.485 37.247 -42.238 Q39.495 -39.991 42.724 -39.991 Z M60 -7.73 Q68.62 -7.73 75.602 -12.647 Q82.584 -17.564 85.65 -25.589 H34.35 Q37.416 -17.564 44.398 -12.647 Q51.38 -7.73 60 -7.73 Z"/></g><g id="Regular-M" transform="matrix(1 0 0 1 1394.06 1126)"><path d="M60 14.77 Q49.625 14.77 40.5 10.833 Q31.375 6.895 24.625 0.145 Q17.875 -6.605 13.938 -15.73 Q10 -24.855 10 -35.23 Q10 -45.605 13.938 -54.73 Q17.875 -63.855 24.625 -70.605 Q31.375 -77.355 40.5 -81.292 Q49.625 -85.23 60 -85.23 Q65.375 -85.23 70.375 -84.167 Q75.375 -83.105 80 -81.105 V-69.855 Q75.625 -72.355 70.562 -73.792 Q65.5 -75.23 60 -75.23 Q43.375 -75.23 31.688 -63.542 Q20 -51.855 20 -35.23 Q20 -18.605 31.688 -6.917 Q43.375 4.77 60 4.77 Q76.625 4.77 88.312 -6.917 Q100 -18.605 100 -35.23 Q100 -39.23 99.188 -42.98 Q98.375 -46.73 97 -50.23 H107.75 Q108.875 -46.605 109.438 -42.917 Q110 -39.23 110 -35.23 Q110 -24.855 106.062 -15.73 Q102.125 -6.605 95.375 0.145 Q88.625 6.895 79.5 10.833 Q70.375 14.77 60 14.77 Z M100 -60.23 V-70.23 H90 V-80.23 H100 V-90.23 H110 V-80.23 H120 V-70.23 H110 V-60.23 H100 Z M77.5 -40.23 Q80.625 -40.23 82.812 -42.417 Q85 -44.605 85 -47.73 Q85 -50.855 82.812 -53.042 Q80.625 -55.23 77.5 -55.23 Q74.375 -55.23 72.188 -53.042 Q70 -50.855 70 -47.73 Q70 -44.605 72.188 -42.417 Q74.375 -40.23 77.5 -40.23 Z M42.5 -40.23 Q45.625 -40.23 47.812 -42.417 Q50 -44.605 50 -47.73 Q50 -50.855 47.812 -53.042 Q45.625 -55.23 42.5 -55.23 Q39.375 -55.23 37.188 -53.042 Q35 -50.855 35 -47.73 Q35 -44.605 37.188 -42.417 Q39.375 -40.23 42.5 -40.23 Z M60 -7.73 Q68.5 -7.73 75.438 -12.542 Q82.375 -17.355 85.5 -25.23 H34.5 Q37.625 -17.355 44.562 -12.542 Q51.5 -7.73 60 -7.73 Z"/></g><g id="Light-M" transform="matrix(1 0 0 1 1098.18 1126)"><path d="M60.008 12.27 Q50.154 12.27 41.483 8.53 Q32.812 4.79 26.398 -1.621 Q19.983 -8.033 16.242 -16.7 Q12.5 -25.367 12.5 -35.222 Q12.5 -45.076 16.241 -53.747 Q19.981 -62.418 26.394 -68.832 Q32.806 -75.247 41.475 -78.988 Q50.144 -82.73 60 -82.73 Q65.183 -82.73 70.038 -81.691 Q74.894 -80.653 79.327 -78.653 V-70.24 Q75.048 -72.595 70.172 -73.913 Q65.297 -75.23 60 -75.23 Q43.375 -75.23 31.688 -63.542 Q20 -51.855 20 -35.23 Q20 -18.605 31.688 -6.917 Q43.375 4.77 60 4.77 Q76.625 4.77 88.312 -6.917 Q100 -18.605 100 -35.23 Q100 -39.038 99.284 -42.619 Q98.567 -46.201 97.288 -49.557 H105.346 Q106.423 -46.124 106.961 -42.593 Q107.5 -39.061 107.5 -35.23 Q107.5 -25.374 103.76 -16.705 Q100.02 -8.036 93.609 -1.624 Q87.197 4.789 78.53 8.529 Q69.863 12.27 60.008 12.27 Z M101.25 -61.48 V-71.48 H91.25 V-78.98 H101.25 V-88.98 H108.75 V-78.98 H118.75 V-71.48 H108.75 V-61.48 H101.25 Z M77.031 -41.192 Q79.76 -41.192 81.659 -43.102 Q83.558 -45.012 83.558 -47.741 Q83.558 -50.47 81.647 -52.369 Q79.737 -54.268 77.008 -54.268 Q74.279 -54.268 72.38 -52.358 Q70.481 -50.448 70.481 -47.719 Q70.481 -44.99 72.391 -43.091 Q74.302 -41.192 77.031 -41.192 Z M42.992 -41.192 Q45.721 -41.192 47.62 -43.102 Q49.519 -45.012 49.519 -47.741 Q49.519 -50.47 47.609 -52.369 Q45.699 -54.268 42.969 -54.268 Q40.24 -54.268 38.341 -52.358 Q36.442 -50.448 36.442 -47.719 Q36.442 -44.99 38.353 -43.091 Q40.263 -41.192 42.992 -41.192 Z M60 -9.269 Q67.897 -9.269 74.343 -13.648 Q80.788 -18.028 83.865 -25.23 H36.135 Q39.212 -18.028 45.657 -13.648 Q52.103 -9.269 60 -9.269 Z"/></g><g id="Thin-M" transform="matrix(1 0 0 1 802.565 1126)"><path d="M60.017 9.77 Q50.683 9.77 42.465 6.228 Q34.248 2.685 28.17 -3.388 Q22.091 -9.46 18.546 -17.67 Q15 -25.879 15 -35.213 Q15 -44.547 18.544 -52.764 Q22.087 -60.982 28.163 -67.06 Q34.237 -73.138 42.45 -76.684 Q50.663 -80.23 60 -80.23 Q64.99 -80.23 69.702 -79.216 Q74.413 -78.201 78.654 -76.201 V-70.624 Q74.471 -72.836 69.782 -74.033 Q65.094 -75.23 60 -75.23 Q43.375 -75.23 31.688 -63.542 Q20 -51.855 20 -35.23 Q20 -18.605 31.688 -6.917 Q43.375 4.77 60 4.77 Q76.625 4.77 88.312 -6.917 Q100 -18.605 100 -35.23 Q100 -38.845 99.38 -42.259 Q98.76 -45.672 97.577 -48.884 H102.942 Q103.971 -45.643 104.486 -42.268 Q105 -38.892 105 -35.23 Q105 -25.892 101.458 -17.68 Q97.915 -9.467 91.842 -3.392 Q85.77 2.683 77.56 6.226 Q69.351 9.77 60.017 9.77 Z M102.5 -62.73 V-72.73 H92.5 V-77.73 H102.5 V-87.73 H107.5 V-77.73 H117.5 V-72.73 H107.5 V-62.73 H102.5 Z M76.561 -42.153 Q78.894 -42.153 80.505 -43.786 Q82.115 -45.419 82.115 -47.753 Q82.115 -50.086 80.482 -51.696 Q78.849 -53.307 76.516 -53.307 Q74.183 -53.307 72.572 -51.674 Q70.962 -50.04 70.962 -47.707 Q70.962 -45.374 72.595 -43.764 Q74.228 -42.153 76.561 -42.153 Z M43.484 -42.153 Q45.817 -42.153 47.428 -43.786 Q49.038 -45.419 49.038 -47.753 Q49.038 -50.086 47.405 -51.696 Q45.772 -53.307 43.439 -53.307 Q41.106 -53.307 39.495 -51.674 Q37.885 -50.04 37.885 -47.707 Q37.885 -45.374 39.518 -43.764 Q41.151 -42.153 43.484 -42.153 Z M60 -10.807 Q67.295 -10.807 73.248 -14.754 Q79.202 -18.701 82.231 -25.23 H37.769 Q40.798 -18.701 46.752 -14.754 Q52.705 -10.807 60 -10.807 Z"/></g><g id="Ultralight-M" transform="matrix(1 0 0 1 506.415 1126)"><path d="M60.022 8.27 Q51 8.27 43.055 4.846 Q35.11 1.422 29.233 -4.447 Q23.357 -10.317 19.928 -18.252 Q16.5 -26.186 16.5 -35.208 Q16.5 -44.23 19.926 -52.175 Q23.351 -60.12 29.224 -65.996 Q35.096 -71.873 43.035 -75.302 Q50.974 -78.73 60 -78.73 Q64.875 -78.73 69.5 -77.73 Q74.125 -76.73 78.25 -74.73 V-70.855 Q74.125 -72.98 69.549 -74.105 Q64.972 -75.23 60 -75.23 Q43.375 -75.23 31.688 -63.542 Q20 -51.855 20 -35.23 Q20 -18.605 31.688 -6.917 Q43.375 4.77 60 4.77 Q76.625 4.77 88.312 -6.917 Q100 -18.605 100 -35.23 Q100 -38.73 99.438 -42.042 Q98.875 -45.355 97.75 -48.48 H101.5 Q102.5 -45.355 103 -42.073 Q103.5 -38.79 103.5 -35.23 Q103.5 -26.204 100.076 -18.265 Q96.652 -10.326 90.783 -4.454 Q84.913 1.419 76.978 4.844 Q69.043 8.27 60.022 8.27 Z M103.25 -63.48 V-73.48 H93.25 V-76.98 H103.25 V-86.98 H106.75 V-76.98 H116.75 V-73.48 H106.75 V-63.48 H103.25 Z M76.279 -42.73 Q78.375 -42.73 79.812 -44.197 Q81.25 -45.664 81.25 -47.759 Q81.25 -49.855 79.783 -51.292 Q78.316 -52.73 76.221 -52.73 Q74.125 -52.73 72.688 -51.263 Q71.25 -49.796 71.25 -47.701 Q71.25 -45.605 72.717 -44.167 Q74.184 -42.73 76.279 -42.73 Z M43.779 -42.73 Q45.875 -42.73 47.312 -44.197 Q48.75 -45.664 48.75 -47.759 Q48.75 -49.855 47.283 -51.292 Q45.816 -52.73 43.721 -52.73 Q41.625 -52.73 40.188 -51.263 Q38.75 -49.796 38.75 -47.701 Q38.75 -45.605 40.217 -44.167 Q41.684 -42.73 43.779 -42.73 Z M60 -11.73 Q66.933 -11.73 72.591 -15.417 Q78.25 -19.105 81.25 -25.23 H38.75 Q41.75 -19.105 47.408 -15.417 Q53.067 -11.73 60 -11.73 Z"/></g><g id="Bold-S" transform="matrix(1 0 0 1 2294.23 696)"><path d="M47.367 5.995 Q38.76 5.995 31.265 2.782 Q23.771 -0.432 18.156 -6.046 Q12.542 -11.661 9.328 -19.151 Q6.115 -26.641 6.115 -35.275 Q6.115 -43.909 9.328 -51.354 Q12.542 -58.799 18.156 -64.414 Q23.771 -70.028 31.247 -73.242 Q38.723 -76.455 47.34 -76.455 Q50.299 -76.455 53.359 -76.068 Q56.419 -75.681 59.274 -74.76 V-62.352 Q56.315 -63.535 53.405 -64.176 Q50.496 -64.817 47.34 -64.817 Q35.043 -64.817 26.398 -56.214 Q17.753 -47.611 17.753 -35.207 Q17.753 -22.803 26.404 -14.223 Q35.055 -5.642 47.362 -5.642 Q59.668 -5.642 68.298 -14.239 Q76.928 -22.835 76.928 -35.23 Q76.928 -38.386 76.286 -41.345 Q75.645 -44.303 74.265 -47.164 H86.593 Q87.579 -44.303 88.072 -41.297 Q88.565 -38.29 88.565 -35.23 Q88.565 -26.613 85.352 -19.137 Q82.138 -11.661 76.524 -6.046 Q70.909 -0.432 63.442 2.782 Q55.975 5.995 47.367 5.995 Z M73.476 -52.785 V-61.366 H64.895 V-73.003 H73.476 V-81.584 H85.113 V-73.003 H93.694 V-61.366 H85.113 V-52.785 H73.476 Z M59.57 -37.991 Q62.43 -37.991 64.353 -39.915 Q66.276 -41.838 66.276 -44.698 Q66.276 -47.558 64.353 -49.481 Q62.43 -51.404 59.619 -51.404 Q56.808 -51.404 54.885 -49.455 Q52.962 -47.506 52.962 -44.721 Q52.962 -41.936 54.889 -39.964 Q56.816 -37.991 59.57 -37.991 Z M35.061 -37.991 Q37.872 -37.991 39.795 -39.941 Q41.718 -41.89 41.718 -44.675 Q41.718 -47.459 39.791 -49.432 Q37.864 -51.404 35.111 -51.404 Q32.25 -51.404 30.327 -49.481 Q28.404 -47.558 28.404 -44.698 Q28.404 -41.838 30.327 -39.915 Q32.25 -37.991 35.061 -37.991 Z M47.34 -16.294 Q53.652 -16.294 58.781 -19.697 Q63.909 -23.099 66.572 -28.819 H28.108 Q30.771 -23.099 35.9 -19.697 Q41.028 -16.294 47.34 -16.294 Z"/></g><g id="Semibold-S" transform="matrix(1 0 0 1 1998.1 696)"><path d="M47.367 4.537 Q39.103 4.537 31.865 1.435 Q24.628 -1.668 19.203 -7.093 Q13.778 -12.518 10.675 -19.751 Q7.573 -26.984 7.573 -35.275 Q7.573 -43.566 10.675 -50.754 Q13.778 -57.942 19.203 -63.367 Q24.628 -68.792 31.847 -71.895 Q39.066 -74.997 47.34 -74.997 Q50.599 -74.997 53.894 -74.5 Q57.189 -74.002 60.26 -72.873 V-62.438 Q57.13 -63.835 53.941 -64.584 Q50.753 -65.332 47.34 -65.332 Q34.829 -65.332 26.033 -56.557 Q17.238 -47.783 17.238 -35.207 Q17.238 -22.632 26.04 -13.88 Q34.842 -5.128 47.362 -5.128 Q59.883 -5.128 68.662 -13.896 Q77.442 -22.664 77.442 -35.23 Q77.442 -38.654 76.694 -41.865 Q75.945 -45.075 74.436 -48.15 H84.835 Q85.993 -45.032 86.55 -41.789 Q87.107 -38.546 87.107 -35.23 Q87.107 -26.956 84.005 -19.737 Q80.902 -12.518 75.477 -7.093 Q70.052 -1.668 62.842 1.435 Q55.632 4.537 47.367 4.537 Z M74.462 -54.415 V-62.352 H66.525 V-72.017 H74.462 V-79.954 H84.127 V-72.017 H92.064 V-62.352 H84.127 V-54.415 H74.462 Z M59.913 -38.335 Q62.601 -38.335 64.439 -40.172 Q66.276 -42.009 66.276 -44.698 Q66.276 -47.387 64.439 -49.224 Q62.601 -51.061 59.94 -51.061 Q57.28 -51.061 55.442 -49.209 Q53.605 -47.357 53.605 -44.711 Q53.605 -42.065 55.445 -40.2 Q57.284 -38.335 59.913 -38.335 Z M34.74 -38.335 Q37.4 -38.335 39.238 -40.187 Q41.075 -42.039 41.075 -44.685 Q41.075 -47.331 39.235 -49.196 Q37.396 -51.061 34.767 -51.061 Q32.079 -51.061 30.241 -49.224 Q28.404 -47.387 28.404 -44.698 Q28.404 -42.009 30.241 -40.172 Q32.079 -38.335 34.74 -38.335 Z M47.34 -16.294 Q53.48 -16.294 58.545 -19.546 Q63.609 -22.799 66.357 -28.305 H28.323 Q31.071 -22.799 36.135 -19.546 Q41.2 -16.294 47.34 -16.294 Z"/></g><g id="Medium-S" transform="matrix(1 0 0 1 1701.85 696)"><path d="M47.367 3.444 Q39.36 3.444 32.315 0.424 Q25.27 -2.595 19.988 -7.878 Q14.705 -13.16 11.686 -20.201 Q8.666 -27.242 8.666 -35.275 Q8.666 -43.309 11.686 -50.304 Q14.705 -57.3 19.988 -62.582 Q25.27 -67.865 32.296 -70.884 Q39.323 -73.904 47.34 -73.904 Q50.824 -73.904 54.295 -73.324 Q57.766 -72.743 61 -71.458 V-62.502 Q57.741 -64.061 54.343 -64.889 Q50.946 -65.718 47.34 -65.718 Q34.668 -65.718 25.76 -56.815 Q16.852 -47.912 16.852 -35.207 Q16.852 -22.503 25.767 -13.623 Q34.682 -4.742 47.362 -4.742 Q60.043 -4.742 68.936 -13.639 Q77.828 -22.535 77.828 -35.23 Q77.828 -38.856 76.999 -42.255 Q76.171 -45.654 74.565 -48.89 H83.516 Q84.803 -45.579 85.408 -42.159 Q86.014 -38.738 86.014 -35.23 Q86.014 -27.213 82.994 -20.186 Q79.975 -13.16 74.692 -7.878 Q69.41 -2.595 62.392 0.424 Q55.374 3.444 47.367 3.444 Z M75.202 -55.637 V-63.092 H67.747 V-71.277 H75.202 V-78.732 H83.387 V-71.277 H90.842 V-63.092 H83.387 V-55.637 H75.202 Z M60.17 -38.592 Q62.73 -38.592 64.503 -40.365 Q66.276 -42.138 66.276 -44.698 Q66.276 -47.258 64.503 -49.031 Q62.73 -50.804 60.182 -50.804 Q57.633 -50.804 55.86 -49.025 Q54.087 -47.245 54.087 -44.704 Q54.087 -42.162 55.861 -40.377 Q57.635 -38.592 60.17 -38.592 Z M34.498 -38.592 Q37.047 -38.592 38.82 -40.371 Q40.593 -42.151 40.593 -44.692 Q40.593 -47.234 38.819 -49.019 Q37.045 -50.804 34.51 -50.804 Q31.95 -50.804 30.177 -49.031 Q28.404 -47.258 28.404 -44.698 Q28.404 -42.138 30.177 -40.365 Q31.95 -38.592 34.498 -38.592 Z M47.34 -16.294 Q53.352 -16.294 58.368 -19.434 Q63.384 -22.574 66.197 -27.919 H28.483 Q31.296 -22.574 36.312 -19.434 Q41.328 -16.294 47.34 -16.294 Z"/></g><g id="Regular-S" transform="matrix(1 0 0 1 1405.73 696)"><path d="M47.367 2.642 Q39.549 2.642 32.645 -0.317 Q25.741 -3.275 20.563 -8.453 Q15.386 -13.631 12.427 -20.531 Q9.468 -27.43 9.468 -35.275 Q9.468 -43.12 12.427 -49.974 Q15.386 -56.829 20.563 -62.007 Q25.741 -67.184 32.626 -70.143 Q39.512 -73.102 47.34 -73.102 Q50.989 -73.102 54.589 -72.461 Q58.189 -71.82 61.542 -70.42 V-62.549 Q58.189 -64.226 54.638 -65.113 Q51.088 -66.001 47.34 -66.001 Q34.551 -66.001 25.56 -57.003 Q16.569 -48.006 16.569 -35.207 Q16.569 -22.409 25.567 -13.434 Q34.564 -4.459 47.363 -4.459 Q60.161 -4.459 69.136 -13.45 Q78.111 -22.441 78.111 -35.23 Q78.111 -39.003 77.223 -42.541 Q76.336 -46.079 74.659 -49.432 H82.549 Q83.93 -45.98 84.571 -42.43 Q85.212 -38.879 85.212 -35.23 Q85.212 -27.402 82.253 -20.516 Q79.294 -13.631 74.117 -8.453 Q68.939 -3.275 62.062 -0.317 Q55.186 2.642 47.367 2.642 Z M75.744 -56.533 V-63.634 H68.643 V-70.735 H75.744 V-77.836 H82.845 V-70.735 H89.946 V-63.634 H82.845 V-56.533 H75.744 Z M60.358 -38.78 Q62.824 -38.78 64.55 -40.506 Q66.276 -42.232 66.276 -44.698 Q66.276 -47.164 64.55 -48.89 Q62.824 -50.615 60.358 -50.615 Q57.893 -50.615 56.167 -48.89 Q54.441 -47.164 54.441 -44.698 Q54.441 -42.232 56.167 -40.506 Q57.893 -38.78 60.358 -38.78 Z M34.322 -38.78 Q36.787 -38.78 38.513 -40.506 Q40.239 -42.232 40.239 -44.698 Q40.239 -47.164 38.513 -48.89 Q36.787 -50.615 34.322 -50.615 Q31.856 -50.615 30.13 -48.89 Q28.404 -47.164 28.404 -44.698 Q28.404 -42.232 30.13 -40.506 Q31.856 -38.78 34.322 -38.78 Z M47.34 -16.294 Q53.258 -16.294 58.238 -19.351 Q63.219 -22.409 66.079 -27.636 H28.601 Q31.461 -22.409 36.442 -19.351 Q41.422 -16.294 47.34 -16.294 Z"/></g><g id="Light-S" transform="matrix(1 0 0 1 1109.75 696)"><path d="M47.374 0.669 Q39.966 0.669 33.42 -2.134 Q26.875 -4.936 21.962 -9.847 Q17.049 -14.758 14.245 -21.296 Q11.441 -27.835 11.441 -35.269 Q11.441 -42.703 14.244 -49.199 Q17.047 -55.695 21.959 -60.608 Q26.87 -65.521 33.396 -68.325 Q39.921 -71.129 47.34 -71.129 Q50.837 -71.129 54.323 -70.507 Q57.809 -69.885 61.011 -68.486 V-62.853 Q57.733 -64.415 54.331 -65.208 Q50.927 -66.001 47.34 -66.001 Q34.551 -66.001 25.56 -57.003 Q16.569 -48.006 16.569 -35.207 Q16.569 -22.409 25.567 -13.434 Q34.564 -4.459 47.363 -4.459 Q60.161 -4.459 69.136 -13.45 Q78.111 -22.441 78.111 -35.23 Q78.111 -38.852 77.299 -42.257 Q76.488 -45.661 74.887 -48.901 H80.652 Q81.995 -45.601 82.617 -42.173 Q83.239 -38.746 83.239 -35.23 Q83.239 -27.811 80.436 -21.286 Q77.634 -14.76 72.723 -9.849 Q67.812 -4.937 61.297 -2.134 Q54.782 0.669 47.374 0.669 Z M76.73 -57.519 V-64.62 H69.629 V-69.749 H76.73 V-76.85 H81.859 V-69.749 H88.96 V-64.62 H81.859 V-57.519 H76.73 Z M59.988 -39.539 Q62.141 -39.539 63.64 -41.047 Q65.138 -42.554 65.138 -44.707 Q65.138 -46.86 63.631 -48.358 Q62.123 -49.857 59.97 -49.857 Q57.817 -49.857 56.319 -48.349 Q54.82 -46.842 54.82 -44.689 Q54.82 -42.536 56.328 -41.038 Q57.835 -39.539 59.988 -39.539 Z M34.71 -39.539 Q36.863 -39.539 38.361 -41.047 Q39.86 -42.554 39.86 -44.707 Q39.86 -46.86 38.352 -48.358 Q36.845 -49.857 34.692 -49.857 Q32.539 -49.857 31.04 -48.349 Q29.542 -46.842 29.542 -44.689 Q29.542 -42.536 31.049 -41.038 Q32.557 -39.539 34.71 -39.539 Z M47.34 -17.508 Q52.782 -17.508 57.374 -20.224 Q61.967 -22.94 64.789 -27.636 H29.891 Q32.713 -22.94 37.306 -20.224 Q41.898 -17.508 47.34 -17.508 Z"/></g><g id="Thin-S" transform="matrix(1 0 0 1 814.015 696)"><path d="M47.38 -1.303 Q40.383 -1.303 34.196 -3.95 Q28.008 -6.597 23.36 -11.241 Q18.712 -15.884 16.063 -22.061 Q13.413 -28.239 13.413 -35.262 Q13.413 -42.286 16.061 -48.424 Q18.709 -54.562 23.354 -59.21 Q28 -63.858 34.165 -66.507 Q40.33 -69.157 47.34 -69.157 Q50.686 -69.157 54.058 -68.554 Q57.43 -67.951 60.48 -66.551 V-63.156 Q57.278 -64.605 54.023 -65.303 Q50.767 -66.001 47.34 -66.001 Q34.551 -66.001 25.56 -57.003 Q16.569 -48.006 16.569 -35.207 Q16.569 -22.409 25.567 -13.434 Q34.564 -4.459 47.363 -4.459 Q60.161 -4.459 69.136 -13.45 Q78.111 -22.441 78.111 -35.23 Q78.111 -38.7 77.375 -41.972 Q76.639 -45.244 75.114 -48.37 H78.756 Q80.061 -45.222 80.664 -41.917 Q81.267 -38.612 81.267 -35.23 Q81.267 -28.22 78.62 -22.055 Q75.973 -15.89 71.329 -11.244 Q66.686 -6.599 60.532 -3.951 Q54.378 -1.303 47.38 -1.303 Z M77.716 -58.505 V-65.606 H70.615 V-68.762 H77.716 V-75.863 H80.873 V-68.762 H87.974 V-65.606 H80.873 V-58.505 H77.716 Z M59.618 -40.298 Q61.459 -40.298 62.729 -41.586 Q64 -42.875 64 -44.716 Q64 -46.557 62.711 -47.827 Q61.423 -49.098 59.582 -49.098 Q57.741 -49.098 56.47 -47.81 Q55.2 -46.521 55.2 -44.68 Q55.2 -42.839 56.488 -41.569 Q57.777 -40.298 59.618 -40.298 Z M35.098 -40.298 Q36.939 -40.298 38.21 -41.586 Q39.48 -42.875 39.48 -44.716 Q39.48 -46.557 38.192 -47.827 Q36.903 -49.098 35.062 -49.098 Q33.221 -49.098 31.951 -47.81 Q30.68 -46.521 30.68 -44.68 Q30.68 -42.839 31.969 -41.569 Q33.257 -40.298 35.098 -40.298 Z M47.34 -18.722 Q52.306 -18.722 56.511 -21.096 Q60.715 -23.471 63.499 -27.636 H31.181 Q33.965 -23.471 38.169 -21.096 Q42.374 -18.722 47.34 -18.722 Z"/></g><g id="Ultralight-S" transform="matrix(1 0 0 1 517.792 696)"><path d="M47.384 -2.486 Q40.634 -2.486 34.661 -5.04 Q28.688 -7.594 24.199 -12.077 Q19.71 -16.56 17.153 -22.52 Q14.597 -28.481 14.597 -35.258 Q14.597 -42.035 17.151 -47.958 Q19.706 -53.882 24.192 -58.371 Q28.677 -62.86 34.626 -65.417 Q40.576 -67.973 47.34 -67.973 Q50.595 -67.973 53.899 -67.382 Q57.203 -66.79 60.161 -65.391 V-63.338 Q57.005 -64.719 53.838 -65.36 Q50.671 -66.001 47.34 -66.001 Q34.551 -66.001 25.56 -57.003 Q16.569 -48.006 16.569 -35.207 Q16.569 -22.409 25.567 -13.434 Q34.564 -4.459 47.363 -4.459 Q60.161 -4.459 69.136 -13.45 Q78.111 -22.441 78.111 -35.23 Q78.111 -38.609 77.421 -41.801 Q76.73 -44.994 75.251 -48.051 H77.618 Q78.9 -44.994 79.492 -41.763 Q80.084 -38.532 80.084 -35.23 Q80.084 -28.466 77.53 -22.516 Q74.976 -16.567 70.493 -12.082 Q66.01 -7.596 60.073 -5.041 Q54.135 -2.486 47.384 -2.486 Z M78.308 -59.097 V-66.198 H71.207 V-68.171 H78.308 V-75.272 H80.281 V-68.171 H87.382 V-66.198 H80.281 V-59.097 H78.308 Z M59.395 -40.753 Q61.049 -40.753 62.183 -41.91 Q63.317 -43.068 63.317 -44.721 Q63.317 -46.375 62.16 -47.509 Q61.002 -48.643 59.349 -48.643 Q57.696 -48.643 56.561 -47.486 Q55.427 -46.328 55.427 -44.675 Q55.427 -43.021 56.585 -41.887 Q57.742 -40.753 59.395 -40.753 Z M35.331 -40.753 Q36.984 -40.753 38.119 -41.91 Q39.253 -43.068 39.253 -44.721 Q39.253 -46.375 38.095 -47.509 Q36.938 -48.643 35.285 -48.643 Q33.631 -48.643 32.497 -47.486 Q31.363 -46.328 31.363 -44.675 Q31.363 -43.021 32.52 -41.887 Q33.678 -40.753 35.331 -40.753 Z M47.34 -19.45 Q52.021 -19.45 55.993 -21.62 Q59.964 -23.789 62.726 -27.636 H31.955 Q34.716 -23.789 38.687 -21.62 Q42.659 -19.45 47.34 -19.45 Z"/></g></g></svg>